<svg width="80" height="80" viewBox="0 0 80 80" fill="none" xmlns="http://www.w3.org/2000/svg">
<path d="M0 40C0 50.6087 4.21427 60.7828 11.7157 68.2843C19.2172 75.7857 29.3913 80 40 80C50.6087 80 60.7828 75.7857 68.2843 68.2843C75.7857 60.7828 80 50.6087 80 40C80 29.3913 75.7857 19.2172 68.2843 11.7157C60.7828 4.21427 50.6087 0 40 0C29.3913 0 19.2172 4.21427 11.7157 11.7157C4.21427 19.2172 0 29.3913 0 40ZM43.9062 60.1562C42.4375 61.625 40.0625 61.625 38.6094 60.1562C37.1562 58.6875 37.1406 56.3125 38.6094 54.8594L49.7031 43.7656L21.25 43.75C19.1719 43.75 17.5 42.0781 17.5 40C17.5 37.9219 19.1719 36.25 21.25 36.25H49.7031L38.6094 25.1562C37.1406 23.6875 37.1406 21.3125 38.6094 19.8594C40.0781 18.4062 42.4531 18.3906 43.9062 19.8594L61.4062 37.3438C62.875 38.8125 62.875 41.1875 61.4062 42.6406L43.9062 60.1562Z" fill="white"/>
</svg>
