<svg width="298" height="300" viewBox="0 0 298 300" fill="none" xmlns="http://www.w3.org/2000/svg">
<g filter="url(#filter0_d_28_240)">
<rect width="288" height="288" rx="60" fill="#778CF8" fill-opacity="0.5"/>
<path d="M43.7486 184.256C42.8313 184.256 42.17 184.117 41.7646 183.84C41.3593 183.563 41.1033 183.2 40.9966 182.752C40.89 182.304 40.8366 181.824 40.8366 181.312V164.768C40.8366 164.299 40.8793 163.84 40.9646 163.392C41.05 162.944 41.2953 162.581 41.7006 162.304C42.106 162.005 42.7993 161.867 43.7806 161.888H49.2846C50.7993 161.888 52.2286 162.176 53.5726 162.752C54.9166 163.328 56.1006 164.128 57.1246 165.152C58.17 166.155 58.9806 167.328 59.5566 168.672C60.154 170.016 60.4526 171.445 60.4526 172.96C60.4526 174.517 60.154 175.979 59.5566 177.344C58.9806 178.709 58.17 179.915 57.1246 180.96C56.1006 181.984 54.906 182.795 53.5406 183.392C52.1966 183.968 50.746 184.256 49.1886 184.256H43.7486ZM46.6926 178.4H49.2846C50.2446 178.4 51.13 178.165 51.9406 177.696C52.7513 177.205 53.3913 176.565 53.8606 175.776C54.3513 174.965 54.5966 174.069 54.5966 173.088C54.5966 172.107 54.3513 171.211 53.8606 170.4C53.3913 169.589 52.7513 168.949 51.9406 168.48C51.13 167.989 50.234 167.744 49.2526 167.744H46.6926V178.4ZM74.1894 184.64C72.632 184.64 71.1707 184.352 69.8054 183.776C68.4614 183.179 67.2774 182.357 66.2534 181.312C65.2294 180.267 64.4187 179.061 63.8214 177.696C63.2454 176.309 62.9574 174.837 62.9574 173.28C62.9574 171.659 63.2347 170.144 63.7894 168.736C64.3654 167.328 65.1547 166.091 66.1574 165.024C67.16 163.957 68.3227 163.125 69.6454 162.528C70.9894 161.931 72.4187 161.632 73.9334 161.632C75.4907 161.632 76.9414 161.931 78.2854 162.528C79.6507 163.104 80.8454 163.915 81.8694 164.96C82.8934 166.005 83.6934 167.232 84.2694 168.64C84.8454 170.027 85.1334 171.531 85.1334 173.152C85.1334 174.731 84.8454 176.213 84.2694 177.6C83.7147 178.987 82.9254 180.213 81.9014 181.28C80.8987 182.325 79.736 183.147 78.4134 183.744C77.112 184.341 75.704 184.64 74.1894 184.64ZM74.0294 178.784C74.7547 178.784 75.4374 178.645 76.0774 178.368C76.7174 178.069 77.272 177.675 77.7414 177.184C78.232 176.672 78.6054 176.075 78.8614 175.392C79.1387 174.688 79.2774 173.941 79.2774 173.152C79.2774 172.363 79.1387 171.627 78.8614 170.944C78.584 170.261 78.2 169.664 77.7094 169.152C77.24 168.619 76.6854 168.213 76.0454 167.936C75.4267 167.637 74.7654 167.488 74.0614 167.488C73.336 167.488 72.6534 167.637 72.0134 167.936C71.3947 168.213 70.84 168.619 70.3494 169.152C69.88 169.664 69.5067 170.261 69.2294 170.944C68.952 171.627 68.8134 172.363 68.8134 173.152C68.8134 173.92 68.952 174.645 69.2294 175.328C69.5067 176.011 69.88 176.619 70.3494 177.152C70.84 177.664 71.3947 178.069 72.0134 178.368C72.6534 178.645 73.3254 178.784 74.0294 178.784ZM99.2039 184.608C98.3719 184.608 97.4439 184.469 96.4199 184.192C95.3959 183.936 94.3612 183.52 93.3159 182.944C92.2919 182.368 91.3425 181.621 90.4679 180.704C89.6145 179.787 88.9212 178.688 88.3879 177.408C87.8759 176.128 87.6199 174.645 87.6199 172.96C87.6199 171.339 87.8759 169.909 88.3879 168.672C88.9212 167.435 89.6145 166.368 90.4679 165.472C91.3212 164.576 92.2599 163.851 93.2839 163.296C94.3292 162.741 95.3745 162.336 96.4199 162.08C97.4652 161.803 98.4252 161.664 99.2999 161.664C100.388 161.664 101.348 161.803 102.18 162.08C103.012 162.336 103.684 162.613 104.196 162.912C104.729 163.189 105.06 163.371 105.188 163.456C105.615 163.733 106.009 164.043 106.372 164.384C106.756 164.704 106.948 165.141 106.948 165.696C106.948 165.973 106.884 166.261 106.756 166.56C106.649 166.859 106.479 167.168 106.244 167.488C105.817 168.085 105.412 168.523 105.028 168.8C104.665 169.077 104.303 169.216 103.94 169.216C103.663 169.216 103.396 169.152 103.14 169.024C102.884 168.896 102.575 168.715 102.212 168.48C102.063 168.373 101.871 168.256 101.636 168.128C101.401 167.979 101.081 167.851 100.676 167.744C100.271 167.616 99.7372 167.552 99.0759 167.552C98.5212 167.552 97.9132 167.659 97.2519 167.872C96.6119 168.064 96.0039 168.384 95.4279 168.832C94.8519 169.259 94.3825 169.835 94.0199 170.56C93.6572 171.264 93.4759 172.117 93.4759 173.12C93.4759 174.144 93.6572 175.008 94.0199 175.712C94.4039 176.416 94.8839 176.992 95.4599 177.44C96.0359 177.867 96.6439 178.187 97.2839 178.4C97.9452 178.592 98.5425 178.688 99.0759 178.688C99.6305 178.688 100.1 178.645 100.484 178.56C100.868 178.453 101.209 178.315 101.508 178.144C101.828 177.973 102.116 177.803 102.372 177.632C102.607 177.461 102.863 177.312 103.14 177.184C103.417 177.056 103.695 176.992 103.972 176.992C104.335 176.992 104.697 177.141 105.06 177.44C105.423 177.739 105.807 178.197 106.212 178.816C106.447 179.179 106.617 179.52 106.724 179.84C106.852 180.139 106.916 180.416 106.916 180.672C106.916 181.205 106.724 181.632 106.34 181.952C105.977 182.272 105.583 182.56 105.156 182.816C105.007 182.901 104.687 183.093 104.196 183.392C103.705 183.691 103.044 183.968 102.212 184.224C101.38 184.48 100.377 184.608 99.2039 184.608ZM126.527 161.856C126.933 161.856 127.317 161.888 127.679 161.952C128.042 162.016 128.341 162.219 128.575 162.56C128.831 162.901 128.959 163.488 128.959 164.32C128.959 165.131 128.831 165.717 128.575 166.08C128.341 166.421 128.031 166.624 127.647 166.688C127.285 166.752 126.901 166.784 126.495 166.784H122.079V181.44C122.079 181.909 122.037 182.368 121.951 182.816C121.866 183.243 121.621 183.595 121.215 183.872C120.831 184.149 120.149 184.288 119.167 184.288C118.229 184.288 117.557 184.149 117.151 183.872C116.746 183.573 116.501 183.211 116.415 182.784C116.351 182.336 116.319 181.877 116.319 181.408V166.784H111.871C111.487 166.784 111.103 166.752 110.719 166.688C110.357 166.603 110.047 166.389 109.791 166.048C109.557 165.707 109.439 165.12 109.439 164.288C109.439 163.477 109.557 162.901 109.791 162.56C110.047 162.219 110.367 162.016 110.751 161.952C111.135 161.888 111.519 161.856 111.903 161.856H126.527ZM140.802 184.64C139.245 184.64 137.783 184.352 136.418 183.776C135.074 183.179 133.89 182.357 132.866 181.312C131.842 180.267 131.031 179.061 130.434 177.696C129.858 176.309 129.57 174.837 129.57 173.28C129.57 171.659 129.847 170.144 130.402 168.736C130.978 167.328 131.767 166.091 132.77 165.024C133.773 163.957 134.935 163.125 136.258 162.528C137.602 161.931 139.031 161.632 140.546 161.632C142.103 161.632 143.554 161.931 144.898 162.528C146.263 163.104 147.458 163.915 148.482 164.96C149.506 166.005 150.306 167.232 150.882 168.64C151.458 170.027 151.746 171.531 151.746 173.152C151.746 174.731 151.458 176.213 150.882 177.6C150.327 178.987 149.538 180.213 148.514 181.28C147.511 182.325 146.349 183.147 145.026 183.744C143.725 184.341 142.317 184.64 140.802 184.64ZM140.642 178.784C141.367 178.784 142.05 178.645 142.69 178.368C143.33 178.069 143.885 177.675 144.354 177.184C144.845 176.672 145.218 176.075 145.474 175.392C145.751 174.688 145.89 173.941 145.89 173.152C145.89 172.363 145.751 171.627 145.474 170.944C145.197 170.261 144.813 169.664 144.322 169.152C143.853 168.619 143.298 168.213 142.658 167.936C142.039 167.637 141.378 167.488 140.674 167.488C139.949 167.488 139.266 167.637 138.626 167.936C138.007 168.213 137.453 168.619 136.962 169.152C136.493 169.664 136.119 170.261 135.842 170.944C135.565 171.627 135.426 172.363 135.426 173.152C135.426 173.92 135.565 174.645 135.842 175.328C136.119 176.011 136.493 176.619 136.962 177.152C137.453 177.664 138.007 178.069 138.626 178.368C139.266 178.645 139.938 178.784 140.642 178.784ZM157.816 184.256C156.856 184.256 156.174 184.117 155.768 183.84C155.363 183.541 155.118 183.168 155.032 182.72C154.947 182.251 154.904 181.781 154.904 181.312V164.8C154.904 164.331 154.947 163.872 155.032 163.424C155.118 162.976 155.363 162.613 155.768 162.336C156.174 162.037 156.867 161.888 157.848 161.888H164.28C165.091 161.888 165.966 162.059 166.904 162.4C167.843 162.72 168.728 163.221 169.56 163.904C170.392 164.587 171.075 165.44 171.608 166.464C172.142 167.488 172.408 168.704 172.408 170.112C172.408 171.093 172.259 172.011 171.96 172.864C171.683 173.717 171.256 174.496 170.68 175.2C170.126 175.883 169.443 176.491 168.632 177.024C167.843 177.536 166.936 177.941 165.912 178.24H160.76V181.344C160.76 181.813 160.718 182.272 160.632 182.72C160.547 183.168 160.302 183.541 159.896 183.84C159.491 184.117 158.798 184.256 157.816 184.256ZM171.224 183.488C170.264 184.213 169.507 184.501 168.952 184.352C168.398 184.224 167.8 183.733 167.16 182.88L161.272 174.88L167.928 174.048L171.896 179.392C172.323 180.011 172.59 180.533 172.696 180.96C172.824 181.387 172.771 181.792 172.536 182.176C172.302 182.56 171.864 182.997 171.224 183.488ZM160.76 172.416H164.28C164.472 172.416 164.696 172.384 164.952 172.32C165.23 172.235 165.486 172.107 165.72 171.936C165.955 171.744 166.147 171.499 166.296 171.2C166.467 170.901 166.552 170.528 166.552 170.08C166.552 169.632 166.446 169.237 166.232 168.896C166.019 168.533 165.731 168.256 165.368 168.064C165.027 167.851 164.643 167.744 164.216 167.744H160.76V172.416ZM178.825 184.288C177.865 184.288 177.182 184.149 176.777 183.872C176.372 183.573 176.126 183.2 176.041 182.752C175.956 182.283 175.913 181.813 175.913 181.344V164.8C175.913 163.691 176.126 162.933 176.553 162.528C177.001 162.101 177.79 161.888 178.921 161.888H190.633C191.124 161.888 191.582 161.931 192.009 162.016C192.457 162.101 192.82 162.347 193.097 162.752C193.396 163.157 193.545 163.851 193.545 164.832C193.545 165.792 193.396 166.475 193.097 166.88C192.82 167.285 192.457 167.531 192.009 167.616C191.561 167.701 191.092 167.744 190.601 167.744H181.769V170.592H187.689C188.18 170.592 188.617 170.635 189.001 170.72C189.385 170.784 189.694 170.987 189.929 171.328C190.164 171.669 190.281 172.267 190.281 173.12C190.281 173.931 190.164 174.517 189.929 174.88C189.694 175.221 189.374 175.424 188.969 175.488C188.564 175.552 188.116 175.584 187.625 175.584H181.769V178.432H190.633C191.124 178.432 191.582 178.475 192.009 178.56C192.457 178.645 192.82 178.891 193.097 179.296C193.396 179.701 193.545 180.395 193.545 181.376C193.545 182.336 193.396 183.019 193.097 183.424C192.82 183.829 192.457 184.075 192.009 184.16C191.561 184.245 191.092 184.288 190.601 184.288H178.825ZM204.25 184.608C202.949 184.608 201.839 184.448 200.922 184.128C200.026 183.808 199.29 183.435 198.714 183.008C198.138 182.56 197.701 182.155 197.402 181.792C197.103 181.429 196.922 181.205 196.858 181.12C196.431 180.587 196.165 180.107 196.058 179.68C195.973 179.253 196.037 178.827 196.25 178.4C196.485 177.973 196.869 177.504 197.402 176.992C197.893 176.523 198.373 176.267 198.842 176.224C199.311 176.16 199.77 176.256 200.218 176.512C200.687 176.768 201.135 177.141 201.562 177.632C202.074 178.208 202.511 178.603 202.874 178.816C203.237 179.008 203.653 179.104 204.122 179.104C204.698 179.104 205.167 179.04 205.53 178.912C205.893 178.763 206.159 178.549 206.33 178.272C206.501 177.973 206.586 177.6 206.586 177.152C206.586 176.789 206.405 176.512 206.042 176.32C205.679 176.107 205.199 175.925 204.602 175.776C204.026 175.627 203.375 175.467 202.65 175.296C201.925 175.104 201.21 174.859 200.506 174.56C200.079 174.389 199.663 174.176 199.258 173.92C198.853 173.664 198.469 173.376 198.106 173.056C197.765 172.715 197.466 172.32 197.21 171.872C196.954 171.403 196.751 170.88 196.602 170.304C196.474 169.728 196.41 169.077 196.41 168.352C196.41 167.051 196.73 165.888 197.37 164.864C198.031 163.84 198.927 163.029 200.058 162.432C201.21 161.835 202.511 161.536 203.962 161.536C205.007 161.536 205.903 161.621 206.65 161.792C207.397 161.963 208.005 162.165 208.474 162.4C208.965 162.635 209.338 162.859 209.594 163.072C209.85 163.264 210.01 163.392 210.074 163.456C210.778 164.096 211.162 164.651 211.226 165.12C211.29 165.568 211.034 166.219 210.458 167.072C209.818 167.989 209.189 168.512 208.57 168.64C207.951 168.747 207.237 168.544 206.426 168.032C206.255 167.904 206.085 167.765 205.914 167.616C205.743 167.445 205.509 167.307 205.21 167.2C204.933 167.072 204.506 167.008 203.93 167.008C203.717 167.008 203.503 167.051 203.29 167.136C203.077 167.2 202.895 167.296 202.746 167.424C202.597 167.531 202.469 167.669 202.362 167.84C202.277 168.011 202.234 168.192 202.234 168.384C202.234 168.832 202.405 169.184 202.746 169.44C203.087 169.675 203.535 169.856 204.09 169.984C204.666 170.112 205.295 170.24 205.978 170.368C206.661 170.496 207.354 170.667 208.058 170.88C208.634 171.072 209.189 171.317 209.722 171.616C210.255 171.915 210.725 172.299 211.13 172.768C211.535 173.237 211.855 173.824 212.09 174.528C212.346 175.211 212.474 176.053 212.474 177.056C212.474 178.443 212.207 179.627 211.674 180.608C211.141 181.568 210.447 182.347 209.594 182.944C208.762 183.52 207.866 183.936 206.906 184.192C205.967 184.469 205.082 184.608 204.25 184.608ZM242.341 162.368C243.28 163.008 243.792 163.627 243.877 164.224C243.962 164.8 243.728 165.493 243.173 166.304L236.805 175.84V181.44C236.805 181.909 236.762 182.368 236.677 182.816C236.592 183.264 236.346 183.637 235.941 183.936C235.536 184.213 234.842 184.352 233.861 184.352C232.88 184.352 232.186 184.213 231.781 183.936C231.376 183.637 231.13 183.264 231.045 182.816C230.96 182.347 230.917 181.867 230.917 181.376V175.84L224.549 166.304C223.952 165.472 223.717 164.757 223.845 164.16C223.973 163.563 224.496 162.965 225.413 162.368C226.074 161.92 226.64 161.664 227.109 161.6C227.578 161.515 228.005 161.611 228.389 161.888C228.773 162.144 229.146 162.571 229.509 163.168L233.765 170.016L238.213 163.168C238.618 162.549 239.002 162.112 239.365 161.856C239.749 161.6 240.176 161.515 240.645 161.6C241.114 161.685 241.68 161.941 242.341 162.368ZM33.2909 220.27C32.3909 220.27 31.7509 220.14 31.3709 219.88C30.9909 219.6 30.7609 219.25 30.6809 218.83C30.6009 218.39 30.5609 217.95 30.5609 217.51V202C30.5609 200.96 30.7609 200.25 31.1609 199.87C31.5809 199.47 32.3209 199.27 33.3809 199.27H44.3609C44.8209 199.27 45.2509 199.31 45.6509 199.39C46.0709 199.47 46.4109 199.7 46.6709 200.08C46.9509 200.46 47.0909 201.11 47.0909 202.03C47.0909 202.93 46.9509 203.57 46.6709 203.95C46.4109 204.33 46.0709 204.56 45.6509 204.64C45.2309 204.72 44.7909 204.76 44.3309 204.76H36.0509V207.43H41.6009C42.0609 207.43 42.4709 207.47 42.8309 207.55C43.1909 207.61 43.4809 207.8 43.7009 208.12C43.9209 208.44 44.0309 209 44.0309 209.8C44.0309 210.56 43.9209 211.11 43.7009 211.45C43.4809 211.77 43.1809 211.96 42.8009 212.02C42.4209 212.08 42.0009 212.11 41.5409 212.11H36.0509V214.78H44.3609C44.8209 214.78 45.2509 214.82 45.6509 214.9C46.0709 214.98 46.4109 215.21 46.6709 215.59C46.9509 215.97 47.0909 216.62 47.0909 217.54C47.0909 218.44 46.9509 219.08 46.6709 219.46C46.4109 219.84 46.0709 220.07 45.6509 220.15C45.2309 220.23 44.7909 220.27 44.3309 220.27H33.2909ZM57.1271 220.57C55.9071 220.57 54.8671 220.42 54.0071 220.12C53.1671 219.82 52.4771 219.47 51.9371 219.07C51.3971 218.65 50.9871 218.27 50.7071 217.93C50.4271 217.59 50.2571 217.38 50.1971 217.3C49.7971 216.8 49.5471 216.35 49.4471 215.95C49.3671 215.55 49.4271 215.15 49.6271 214.75C49.8471 214.35 50.2071 213.91 50.7071 213.43C51.1671 212.99 51.6171 212.75 52.0571 212.71C52.4971 212.65 52.9271 212.74 53.3471 212.98C53.7871 213.22 54.2071 213.57 54.6071 214.03C55.0871 214.57 55.4971 214.94 55.8371 215.14C56.1771 215.32 56.5671 215.41 57.0071 215.41C57.5471 215.41 57.9871 215.35 58.3271 215.23C58.6671 215.09 58.9171 214.89 59.0771 214.63C59.2371 214.35 59.3171 214 59.3171 213.58C59.3171 213.24 59.1471 212.98 58.8071 212.8C58.4671 212.6 58.0171 212.43 57.4571 212.29C56.9171 212.15 56.3071 212 55.6271 211.84C54.9471 211.66 54.2771 211.43 53.6171 211.15C53.2171 210.99 52.8271 210.79 52.4471 210.55C52.0671 210.31 51.7071 210.04 51.3671 209.74C51.0471 209.42 50.7671 209.05 50.5271 208.63C50.2871 208.19 50.0971 207.7 49.9571 207.16C49.8371 206.62 49.7771 206.01 49.7771 205.33C49.7771 204.11 50.0771 203.02 50.6771 202.06C51.2971 201.1 52.1371 200.34 53.1971 199.78C54.2771 199.22 55.4971 198.94 56.8571 198.94C57.8371 198.94 58.6771 199.02 59.3771 199.18C60.0771 199.34 60.6471 199.53 61.0871 199.75C61.5471 199.97 61.8971 200.18 62.1371 200.38C62.3771 200.56 62.5271 200.68 62.5871 200.74C63.2471 201.34 63.6071 201.86 63.6671 202.3C63.7271 202.72 63.4871 203.33 62.9471 204.13C62.3471 204.99 61.7571 205.48 61.1771 205.6C60.5971 205.7 59.9271 205.51 59.1671 205.03C59.0071 204.91 58.8471 204.78 58.6871 204.64C58.5271 204.48 58.3071 204.35 58.0271 204.25C57.7671 204.13 57.3671 204.07 56.8271 204.07C56.6271 204.07 56.4271 204.11 56.2271 204.19C56.0271 204.25 55.8571 204.34 55.7171 204.46C55.5771 204.56 55.4571 204.69 55.3571 204.85C55.2771 205.01 55.2371 205.18 55.2371 205.36C55.2371 205.78 55.3971 206.11 55.7171 206.35C56.0371 206.57 56.4571 206.74 56.9771 206.86C57.5171 206.98 58.1071 207.1 58.7471 207.22C59.3871 207.34 60.0371 207.5 60.6971 207.7C61.2371 207.88 61.7571 208.11 62.2571 208.39C62.7571 208.67 63.1971 209.03 63.5771 209.47C63.9571 209.91 64.2571 210.46 64.4771 211.12C64.7171 211.76 64.8371 212.55 64.8371 213.49C64.8371 214.79 64.5871 215.9 64.0871 216.82C63.5871 217.72 62.9371 218.45 62.1371 219.01C61.3571 219.55 60.5171 219.94 59.6171 220.18C58.7371 220.44 57.9071 220.57 57.1271 220.57ZM70.5368 220.24C69.6368 220.24 68.9968 220.11 68.6168 219.85C68.2368 219.57 68.0068 219.22 67.9268 218.8C67.8468 218.36 67.8068 217.92 67.8068 217.48V202C67.8068 201.56 67.8468 201.13 67.9268 200.71C68.0068 200.29 68.2368 199.95 68.6168 199.69C68.9968 199.41 69.6468 199.27 70.5668 199.27H76.5368C77.2968 199.27 78.1168 199.43 78.9968 199.75C79.8768 200.05 80.7068 200.52 81.4868 201.16C82.2868 201.8 82.9368 202.6 83.4368 203.56C83.9368 204.52 84.1868 205.66 84.1868 206.98C84.1868 208.28 83.9368 209.41 83.4368 210.37C82.9368 211.33 82.2868 212.13 81.4868 212.77C80.7068 213.39 79.8768 213.86 78.9968 214.18C78.1168 214.48 77.2868 214.63 76.5068 214.63H73.2968V217.51C73.2968 217.95 73.2568 218.38 73.1768 218.8C73.0968 219.22 72.8668 219.57 72.4868 219.85C72.1068 220.11 71.4568 220.24 70.5368 220.24ZM73.2968 209.14H76.5368C76.7968 209.14 77.0968 209.08 77.4368 208.96C77.7768 208.82 78.0768 208.59 78.3368 208.27C78.5968 207.95 78.7268 207.51 78.7268 206.95C78.7268 206.53 78.6268 206.16 78.4268 205.84C78.2268 205.5 77.9568 205.24 77.6168 205.06C77.2968 204.86 76.9268 204.76 76.5068 204.76H73.2968V209.14ZM89.9686 220.27C89.0686 220.27 88.4286 220.14 88.0486 219.88C87.6686 219.6 87.4386 219.25 87.3586 218.83C87.2786 218.39 87.2386 217.95 87.2386 217.51V202C87.2386 200.96 87.4386 200.25 87.8386 199.87C88.2586 199.47 88.9986 199.27 90.0586 199.27H101.039C101.499 199.27 101.929 199.31 102.329 199.39C102.749 199.47 103.089 199.7 103.349 200.08C103.629 200.46 103.769 201.11 103.769 202.03C103.769 202.93 103.629 203.57 103.349 203.95C103.089 204.33 102.749 204.56 102.329 204.64C101.909 204.72 101.469 204.76 101.009 204.76H92.7286V207.43H98.2786C98.7386 207.43 99.1486 207.47 99.5086 207.55C99.8686 207.61 100.159 207.8 100.379 208.12C100.599 208.44 100.709 209 100.709 209.8C100.709 210.56 100.599 211.11 100.379 211.45C100.159 211.77 99.8586 211.96 99.4786 212.02C99.0986 212.08 98.6786 212.11 98.2186 212.11H92.7286V214.78H101.039C101.499 214.78 101.929 214.82 102.329 214.9C102.749 214.98 103.089 215.21 103.349 215.59C103.629 215.97 103.769 216.62 103.769 217.54C103.769 218.44 103.629 219.08 103.349 219.46C103.089 219.84 102.749 220.07 102.329 220.15C101.909 220.23 101.469 220.27 101.009 220.27H89.9686ZM116.955 220.57C116.175 220.57 115.305 220.44 114.345 220.18C113.385 219.94 112.415 219.55 111.435 219.01C110.475 218.47 109.585 217.77 108.765 216.91C107.965 216.05 107.315 215.02 106.815 213.82C106.335 212.62 106.095 211.23 106.095 209.65C106.095 208.13 106.335 206.79 106.815 205.63C107.315 204.47 107.965 203.47 108.765 202.63C109.565 201.79 110.445 201.11 111.405 200.59C112.385 200.07 113.365 199.69 114.345 199.45C115.325 199.19 116.225 199.06 117.045 199.06C118.065 199.06 118.965 199.19 119.745 199.45C120.525 199.69 121.155 199.95 121.635 200.23C122.135 200.49 122.445 200.66 122.565 200.74C122.965 201 123.335 201.29 123.675 201.61C124.035 201.91 124.215 202.32 124.215 202.84C124.215 203.1 124.155 203.37 124.035 203.65C123.935 203.93 123.775 204.22 123.555 204.52C123.155 205.08 122.775 205.49 122.415 205.75C122.075 206.01 121.735 206.14 121.395 206.14C121.135 206.14 120.885 206.08 120.645 205.96C120.405 205.84 120.115 205.67 119.775 205.45C119.635 205.35 119.455 205.24 119.235 205.12C119.015 204.98 118.715 204.86 118.335 204.76C117.955 204.64 117.455 204.58 116.835 204.58C116.315 204.58 115.745 204.68 115.125 204.88C114.525 205.06 113.955 205.36 113.415 205.78C112.875 206.18 112.435 206.72 112.095 207.4C111.755 208.06 111.585 208.86 111.585 209.8C111.585 210.76 111.755 211.57 112.095 212.23C112.455 212.89 112.905 213.43 113.445 213.85C113.985 214.25 114.555 214.55 115.155 214.75C115.775 214.93 116.335 215.02 116.835 215.02C117.355 215.02 117.795 214.98 118.155 214.9C118.515 214.8 118.835 214.67 119.115 214.51C119.415 214.35 119.685 214.19 119.925 214.03C120.145 213.87 120.385 213.73 120.645 213.61C120.905 213.49 121.165 213.43 121.425 213.43C121.765 213.43 122.105 213.57 122.445 213.85C122.785 214.13 123.145 214.56 123.525 215.14C123.745 215.48 123.905 215.8 124.005 216.1C124.125 216.38 124.185 216.64 124.185 216.88C124.185 217.38 124.005 217.78 123.645 218.08C123.305 218.38 122.935 218.65 122.535 218.89C122.395 218.97 122.095 219.15 121.635 219.43C121.175 219.71 120.555 219.97 119.775 220.21C118.995 220.45 118.055 220.57 116.955 220.57ZM129.671 220.27C128.771 220.27 128.131 220.14 127.751 219.88C127.371 219.6 127.141 219.25 127.061 218.83C126.981 218.39 126.941 217.95 126.941 217.51V202C126.941 201.56 126.981 201.13 127.061 200.71C127.141 200.29 127.371 199.95 127.751 199.69C128.131 199.41 128.781 199.27 129.701 199.27C130.621 199.27 131.261 199.41 131.621 199.69C132.001 199.95 132.231 200.29 132.311 200.71C132.391 201.13 132.431 201.57 132.431 202.03V217.54C132.431 217.98 132.391 218.41 132.311 218.83C132.231 219.25 132.001 219.6 131.621 219.88C131.241 220.14 130.591 220.27 129.671 220.27ZM154.57 216.46C154.87 217.06 155.03 217.57 155.05 217.99C155.07 218.41 154.94 218.78 154.66 219.1C154.38 219.42 153.93 219.74 153.31 220.06C152.35 220.52 151.61 220.66 151.09 220.48C150.57 220.32 150.08 219.75 149.62 218.77L144.52 208.33L139.48 218.8C139 219.74 138.5 220.29 137.98 220.45C137.46 220.63 136.73 220.49 135.79 220.03C135.17 219.73 134.71 219.42 134.41 219.1C134.13 218.78 134 218.41 134.02 217.99C134.04 217.57 134.2 217.06 134.5 216.46L142.03 200.86C142.27 200.38 142.62 200 143.08 199.72C143.56 199.42 144.05 199.27 144.55 199.27C144.91 199.27 145.24 199.34 145.54 199.48C145.86 199.6 146.15 199.78 146.41 200.02C146.67 200.26 146.88 200.55 147.04 200.89L154.57 216.46ZM139.78 215.92L142.06 211.24H147.01L149.29 215.92H139.78ZM160.928 220.27C160.028 220.27 159.388 220.14 159.008 219.88C158.628 219.6 158.398 219.25 158.318 218.83C158.238 218.39 158.198 217.95 158.198 217.51V202C158.198 201.56 158.238 201.13 158.318 200.71C158.398 200.29 158.628 199.95 159.008 199.69C159.388 199.41 160.038 199.27 160.958 199.27C161.878 199.27 162.518 199.41 162.878 199.69C163.258 199.95 163.488 200.29 163.568 200.71C163.648 201.13 163.688 201.57 163.688 202.03V215.59H171.008C171.388 215.59 171.748 215.62 172.088 215.68C172.448 215.74 172.738 215.94 172.958 216.28C173.198 216.6 173.318 217.15 173.318 217.93C173.318 218.69 173.198 219.24 172.958 219.58C172.718 219.9 172.418 220.09 172.058 220.15C171.718 220.23 171.358 220.27 170.978 220.27H160.928ZM178.848 220.27C177.948 220.27 177.308 220.14 176.928 219.88C176.548 219.6 176.318 219.25 176.238 218.83C176.158 218.39 176.118 217.95 176.118 217.51V202C176.118 201.56 176.158 201.13 176.238 200.71C176.318 200.29 176.548 199.95 176.928 199.69C177.308 199.41 177.958 199.27 178.878 199.27C179.798 199.27 180.438 199.41 180.798 199.69C181.178 199.95 181.408 200.29 181.488 200.71C181.568 201.13 181.608 201.57 181.608 202.03V217.54C181.608 217.98 181.568 218.41 181.488 218.83C181.408 219.25 181.178 219.6 180.798 219.88C180.418 220.14 179.768 220.27 178.848 220.27ZM192.086 220.57C190.866 220.57 189.826 220.42 188.966 220.12C188.126 219.82 187.436 219.47 186.896 219.07C186.356 218.65 185.946 218.27 185.666 217.93C185.386 217.59 185.216 217.38 185.156 217.3C184.756 216.8 184.506 216.35 184.406 215.95C184.326 215.55 184.386 215.15 184.586 214.75C184.806 214.35 185.166 213.91 185.666 213.43C186.126 212.99 186.576 212.75 187.016 212.71C187.456 212.65 187.886 212.74 188.306 212.98C188.746 213.22 189.166 213.57 189.566 214.03C190.046 214.57 190.456 214.94 190.796 215.14C191.136 215.32 191.526 215.41 191.966 215.41C192.506 215.41 192.946 215.35 193.286 215.23C193.626 215.09 193.876 214.89 194.036 214.63C194.196 214.35 194.276 214 194.276 213.58C194.276 213.24 194.106 212.98 193.766 212.8C193.426 212.6 192.976 212.43 192.416 212.29C191.876 212.15 191.266 212 190.586 211.84C189.906 211.66 189.236 211.43 188.576 211.15C188.176 210.99 187.786 210.79 187.406 210.55C187.026 210.31 186.666 210.04 186.326 209.74C186.006 209.42 185.726 209.05 185.486 208.63C185.246 208.19 185.056 207.7 184.916 207.16C184.796 206.62 184.736 206.01 184.736 205.33C184.736 204.11 185.036 203.02 185.636 202.06C186.256 201.1 187.096 200.34 188.156 199.78C189.236 199.22 190.456 198.94 191.816 198.94C192.796 198.94 193.636 199.02 194.336 199.18C195.036 199.34 195.606 199.53 196.046 199.75C196.506 199.97 196.856 200.18 197.096 200.38C197.336 200.56 197.486 200.68 197.546 200.74C198.206 201.34 198.566 201.86 198.626 202.3C198.686 202.72 198.446 203.33 197.906 204.13C197.306 204.99 196.716 205.48 196.136 205.6C195.556 205.7 194.886 205.51 194.126 205.03C193.966 204.91 193.806 204.78 193.646 204.64C193.486 204.48 193.266 204.35 192.986 204.25C192.726 204.13 192.326 204.07 191.786 204.07C191.586 204.07 191.386 204.11 191.186 204.19C190.986 204.25 190.816 204.34 190.676 204.46C190.536 204.56 190.416 204.69 190.316 204.85C190.236 205.01 190.196 205.18 190.196 205.36C190.196 205.78 190.356 206.11 190.676 206.35C190.996 206.57 191.416 206.74 191.936 206.86C192.476 206.98 193.066 207.1 193.706 207.22C194.346 207.34 194.996 207.5 195.656 207.7C196.196 207.88 196.716 208.11 197.216 208.39C197.716 208.67 198.156 209.03 198.536 209.47C198.916 209.91 199.216 210.46 199.436 211.12C199.676 211.76 199.796 212.55 199.796 213.49C199.796 214.79 199.546 215.9 199.046 216.82C198.546 217.72 197.896 218.45 197.096 219.01C196.316 219.55 195.476 219.94 194.576 220.18C193.696 220.44 192.866 220.57 192.086 220.57ZM216.692 199.24C217.072 199.24 217.432 199.27 217.772 199.33C218.112 199.39 218.392 199.58 218.612 199.9C218.852 200.22 218.972 200.77 218.972 201.55C218.972 202.31 218.852 202.86 218.612 203.2C218.392 203.52 218.102 203.71 217.742 203.77C217.402 203.83 217.042 203.86 216.662 203.86H212.522V217.6C212.522 218.04 212.482 218.47 212.402 218.89C212.322 219.29 212.092 219.62 211.712 219.88C211.352 220.14 210.712 220.27 209.792 220.27C208.912 220.27 208.282 220.14 207.902 219.88C207.522 219.6 207.292 219.26 207.212 218.86C207.152 218.44 207.122 218.01 207.122 217.57V203.86H202.952C202.592 203.86 202.232 203.83 201.872 203.77C201.532 203.69 201.242 203.49 201.002 203.17C200.782 202.85 200.672 202.3 200.672 201.52C200.672 200.76 200.782 200.22 201.002 199.9C201.242 199.58 201.542 199.39 201.902 199.33C202.262 199.27 202.622 199.24 202.982 199.24H216.692ZM236.191 216.46C236.491 217.06 236.651 217.57 236.671 217.99C236.691 218.41 236.561 218.78 236.281 219.1C236.001 219.42 235.551 219.74 234.931 220.06C233.971 220.52 233.231 220.66 232.711 220.48C232.191 220.32 231.701 219.75 231.241 218.77L226.141 208.33L221.101 218.8C220.621 219.74 220.121 220.29 219.601 220.45C219.081 220.63 218.351 220.49 217.411 220.03C216.791 219.73 216.331 219.42 216.031 219.1C215.751 218.78 215.621 218.41 215.641 217.99C215.661 217.57 215.821 217.06 216.121 216.46L223.651 200.86C223.891 200.38 224.241 200 224.701 199.72C225.181 199.42 225.671 199.27 226.171 199.27C226.531 199.27 226.861 199.34 227.161 199.48C227.481 199.6 227.771 199.78 228.031 200.02C228.291 200.26 228.501 200.55 228.661 200.89L236.191 216.46ZM221.401 215.92L223.681 211.24H228.631L230.911 215.92H221.401ZM246.449 220.57C245.229 220.57 244.189 220.42 243.329 220.12C242.489 219.82 241.799 219.47 241.259 219.07C240.719 218.65 240.309 218.27 240.029 217.93C239.749 217.59 239.579 217.38 239.519 217.3C239.119 216.8 238.869 216.35 238.769 215.95C238.689 215.55 238.749 215.15 238.949 214.75C239.169 214.35 239.529 213.91 240.029 213.43C240.489 212.99 240.939 212.75 241.379 212.71C241.819 212.65 242.249 212.74 242.669 212.98C243.109 213.22 243.529 213.57 243.929 214.03C244.409 214.57 244.819 214.94 245.159 215.14C245.499 215.32 245.889 215.41 246.329 215.41C246.869 215.41 247.309 215.35 247.649 215.23C247.989 215.09 248.239 214.89 248.399 214.63C248.559 214.35 248.639 214 248.639 213.58C248.639 213.24 248.469 212.98 248.129 212.8C247.789 212.6 247.339 212.43 246.779 212.29C246.239 212.15 245.629 212 244.949 211.84C244.269 211.66 243.599 211.43 242.939 211.15C242.539 210.99 242.149 210.79 241.769 210.55C241.389 210.31 241.029 210.04 240.689 209.74C240.369 209.42 240.089 209.05 239.849 208.63C239.609 208.19 239.419 207.7 239.279 207.16C239.159 206.62 239.099 206.01 239.099 205.33C239.099 204.11 239.399 203.02 239.999 202.06C240.619 201.1 241.459 200.34 242.519 199.78C243.599 199.22 244.819 198.94 246.179 198.94C247.159 198.94 247.999 199.02 248.699 199.18C249.399 199.34 249.969 199.53 250.409 199.75C250.869 199.97 251.219 200.18 251.459 200.38C251.699 200.56 251.849 200.68 251.909 200.74C252.569 201.34 252.929 201.86 252.989 202.3C253.049 202.72 252.809 203.33 252.269 204.13C251.669 204.99 251.079 205.48 250.499 205.6C249.919 205.7 249.249 205.51 248.489 205.03C248.329 204.91 248.169 204.78 248.009 204.64C247.849 204.48 247.629 204.35 247.349 204.25C247.089 204.13 246.689 204.07 246.149 204.07C245.949 204.07 245.749 204.11 245.549 204.19C245.349 204.25 245.179 204.34 245.039 204.46C244.899 204.56 244.779 204.69 244.679 204.85C244.599 205.01 244.559 205.18 244.559 205.36C244.559 205.78 244.719 206.11 245.039 206.35C245.359 206.57 245.779 206.74 246.299 206.86C246.839 206.98 247.429 207.1 248.069 207.22C248.709 207.34 249.359 207.5 250.019 207.7C250.559 207.88 251.079 208.11 251.579 208.39C252.079 208.67 252.519 209.03 252.899 209.47C253.279 209.91 253.579 210.46 253.799 211.12C254.039 211.76 254.159 212.55 254.159 213.49C254.159 214.79 253.909 215.9 253.409 216.82C252.909 217.72 252.259 218.45 251.459 219.01C250.679 219.55 249.839 219.94 248.939 220.18C248.059 220.44 247.229 220.57 246.449 220.57Z" fill="white"/>
</g>
<path d="M121.891 43.6725C122.697 46.4946 121.387 49.535 118.983 50.4757L115.212 51.9371V72.2461C115.212 81.1491 121.402 88.3722 129.03 88.3722C136.659 88.3722 142.848 81.1491 142.848 72.2461V51.9371L139.092 50.4757C136.673 49.535 135.378 46.4946 136.184 43.6725C136.99 40.8504 139.595 39.3386 142.014 40.2793L145.77 41.7407C149.527 43.2021 152.061 47.3009 152.061 51.9371V72.2461C152.061 85.2142 144.202 96.0322 133.737 98.5687C134.644 107.959 141.467 115.249 149.758 115.249C158.667 115.249 165.879 106.833 165.879 96.4353V84.5591C161.805 82.4929 158.97 77.7558 158.97 72.2461C158.97 64.8213 164.123 58.8076 170.485 58.8076C176.847 58.8076 182 64.8213 182 72.2461C182 77.7558 179.164 82.4929 175.091 84.5591V96.4353C175.091 112.763 163.748 126 149.758 126C136.386 126 125.446 113.922 124.496 98.6023C113.945 96.133 106 85.2814 106 72.2461V51.9371C106 47.3177 108.533 43.2021 112.305 41.7407L116.061 40.2793C118.48 39.3386 121.085 40.8672 121.891 43.6725ZM170.485 77.6215C171.706 77.6215 172.878 77.0551 173.742 76.047C174.606 75.039 175.091 73.6717 175.091 72.2461C175.091 70.8204 174.606 69.4532 173.742 68.4451C172.878 67.437 171.706 66.8707 170.485 66.8707C169.263 66.8707 168.092 67.437 167.228 68.4451C166.364 69.4532 165.879 70.8204 165.879 72.2461C165.879 73.6717 166.364 75.039 167.228 76.047C168.092 77.0551 169.263 77.6215 170.485 77.6215Z" fill="white"/>
<defs>
<filter id="filter0_d_28_240" x="0" y="0" width="298" height="300" filterUnits="userSpaceOnUse" color-interpolation-filters="sRGB">
<feFlood flood-opacity="0" result="BackgroundImageFix"/>
<feColorMatrix in="SourceAlpha" type="matrix" values="0 0 0 0 0 0 0 0 0 0 0 0 0 0 0 0 0 0 127 0" result="hardAlpha"/>
<feOffset dx="6" dy="8"/>
<feGaussianBlur stdDeviation="2"/>
<feComposite in2="hardAlpha" operator="out"/>
<feColorMatrix type="matrix" values="0 0 0 0 0 0 0 0 0 0 0 0 0 0 0 0 0 0 0.25 0"/>
<feBlend mode="normal" in2="BackgroundImageFix" result="effect1_dropShadow_28_240"/>
<feBlend mode="normal" in="SourceGraphic" in2="effect1_dropShadow_28_240" result="shape"/>
</filter>
</defs>
</svg>
