<svg width="298" height="300" viewBox="0 0 298 300" fill="none" xmlns="http://www.w3.org/2000/svg">
<g filter="url(#filter0_d_28_204)">
<rect width="288" height="288" rx="60" fill="#778CF8"/>
<path d="M84.5269 178.224C84.8469 178.864 85.0175 179.408 85.0389 179.856C85.0602 180.304 84.9215 180.699 84.6229 181.04C84.3242 181.381 83.8442 181.723 83.1829 182.064C82.1589 182.555 81.3695 182.704 80.8149 182.512C80.2602 182.341 79.7375 181.733 79.2469 180.688L73.8069 169.552L68.4309 180.72C67.9189 181.723 67.3855 182.309 66.8309 182.48C66.2762 182.672 65.4975 182.523 64.4949 182.032C63.8335 181.712 63.3429 181.381 63.0229 181.04C62.7242 180.699 62.5855 180.304 62.6069 179.856C62.6282 179.408 62.7989 178.864 63.1189 178.224L71.1509 161.584C71.4069 161.072 71.7802 160.667 72.2709 160.368C72.7829 160.048 73.3055 159.888 73.8389 159.888C74.2229 159.888 74.5749 159.963 74.8949 160.112C75.2362 160.24 75.5455 160.432 75.8229 160.688C76.1002 160.944 76.3242 161.253 76.4949 161.616L84.5269 178.224ZM68.7509 177.648L71.1829 172.656H76.4629L78.8949 177.648H68.7509ZM99.1809 182.608C97.6449 182.608 96.1942 182.299 94.8289 181.68C93.4849 181.061 92.2902 180.208 91.2449 179.12C90.1995 178.032 89.3782 176.773 88.7809 175.344C88.2049 173.915 87.9169 172.389 87.9169 170.768C87.9169 169.211 88.2155 167.76 88.8129 166.416C89.4102 165.051 90.2315 163.856 91.2769 162.832C92.3435 161.787 93.5702 160.976 94.9569 160.4C96.3435 159.803 97.8262 159.504 99.4049 159.504C100.088 159.504 100.824 159.568 101.613 159.696C102.402 159.824 103.17 160.027 103.917 160.304C104.685 160.56 105.346 160.88 105.901 161.264C106.349 161.563 106.754 161.883 107.117 162.224C107.501 162.565 107.693 162.992 107.693 163.504C107.693 163.76 107.629 164.037 107.501 164.336C107.373 164.635 107.192 164.955 106.957 165.296C106.552 165.893 106.146 166.331 105.741 166.608C105.336 166.864 104.952 166.992 104.589 166.992C104.354 166.992 104.109 166.939 103.853 166.832C103.618 166.704 103.288 166.512 102.861 166.256C102.733 166.171 102.488 166.064 102.125 165.936C101.762 165.787 101.325 165.659 100.813 165.552C100.322 165.424 99.7995 165.36 99.2449 165.36C98.2422 165.36 97.3249 165.605 96.4929 166.096C95.6609 166.565 94.9995 167.216 94.5089 168.048C94.0182 168.88 93.7729 169.808 93.7729 170.832C93.7729 171.877 94.0289 172.848 94.5409 173.744C95.0529 174.619 95.7249 175.333 96.5569 175.888C97.4102 176.421 98.3275 176.688 99.3089 176.688C99.6929 176.688 100.066 176.677 100.429 176.656C100.813 176.635 101.186 176.592 101.549 176.528C101.912 176.464 102.232 176.379 102.509 176.272V173.52H100.141C99.7569 173.52 99.3942 173.488 99.0529 173.424C98.7115 173.339 98.4342 173.125 98.2209 172.784C98.0075 172.443 97.9009 171.856 97.9009 171.024C97.9009 170.192 98.0182 169.605 98.2529 169.264C98.4875 168.923 98.7862 168.72 99.1489 168.656C99.5115 168.592 99.8742 168.56 100.237 168.56H105.837C106.69 168.581 107.288 168.741 107.629 169.04C107.97 169.317 108.173 169.659 108.237 170.064C108.322 170.469 108.365 170.896 108.365 171.344V177.904C108.365 178.501 108.109 179.12 107.597 179.76C107.085 180.379 106.392 180.912 105.517 181.36C104.984 181.637 104.386 181.861 103.725 182.032C103.064 182.224 102.349 182.363 101.581 182.448C100.834 182.555 100.034 182.608 99.1809 182.608ZM115.525 182.288C114.565 182.288 113.882 182.149 113.477 181.872C113.072 181.573 112.826 181.2 112.741 180.752C112.656 180.283 112.613 179.813 112.613 179.344V162.8C112.613 161.691 112.826 160.933 113.253 160.528C113.701 160.101 114.49 159.888 115.621 159.888H127.333C127.824 159.888 128.282 159.931 128.709 160.016C129.157 160.101 129.52 160.347 129.797 160.752C130.096 161.157 130.245 161.851 130.245 162.832C130.245 163.792 130.096 164.475 129.797 164.88C129.52 165.285 129.157 165.531 128.709 165.616C128.261 165.701 127.792 165.744 127.301 165.744H118.469V168.592H124.389C124.88 168.592 125.317 168.635 125.701 168.72C126.085 168.784 126.394 168.987 126.629 169.328C126.864 169.669 126.981 170.267 126.981 171.12C126.981 171.931 126.864 172.517 126.629 172.88C126.394 173.221 126.074 173.424 125.669 173.488C125.264 173.552 124.816 173.584 124.325 173.584H118.469V176.432H127.333C127.824 176.432 128.282 176.475 128.709 176.56C129.157 176.645 129.52 176.891 129.797 177.296C130.096 177.701 130.245 178.395 130.245 179.376C130.245 180.336 130.096 181.019 129.797 181.424C129.52 181.829 129.157 182.075 128.709 182.16C128.261 182.245 127.792 182.288 127.301 182.288H115.525ZM136.054 182.288C135.115 182.288 134.443 182.149 134.038 181.872C133.633 181.573 133.387 181.2 133.302 180.752C133.217 180.304 133.174 179.835 133.174 179.344V162.736C133.174 162.267 133.217 161.819 133.302 161.392C133.387 160.965 133.633 160.613 134.038 160.336C134.465 160.059 135.158 159.92 136.118 159.92C137.057 159.92 137.697 160.037 138.038 160.272C138.379 160.507 138.689 160.805 138.966 161.168L146.966 171.92V162.736C146.966 162.267 147.009 161.819 147.094 161.392C147.201 160.965 147.457 160.613 147.862 160.336C148.267 160.059 148.95 159.92 149.91 159.92C150.891 159.92 151.574 160.069 151.958 160.368C152.363 160.645 152.609 161.008 152.694 161.456C152.779 161.904 152.822 162.373 152.822 162.864V179.376C152.822 179.845 152.779 180.304 152.694 180.752C152.609 181.2 152.363 181.573 151.958 181.872C151.553 182.149 150.859 182.288 149.878 182.288C149.153 182.288 148.598 182.224 148.214 182.096C147.851 181.989 147.542 181.765 147.286 181.424L138.998 170.48V179.376C138.998 179.845 138.955 180.304 138.87 180.752C138.785 181.2 138.539 181.573 138.134 181.872C137.729 182.149 137.035 182.288 136.054 182.288ZM159.124 182.256C158.206 182.256 157.545 182.117 157.14 181.84C156.734 181.563 156.478 181.2 156.372 180.752C156.265 180.304 156.212 179.824 156.212 179.312V162.768C156.212 162.299 156.254 161.84 156.34 161.392C156.425 160.944 156.67 160.581 157.076 160.304C157.481 160.005 158.174 159.867 159.156 159.888H164.66C166.174 159.888 167.604 160.176 168.948 160.752C170.292 161.328 171.476 162.128 172.5 163.152C173.545 164.155 174.356 165.328 174.932 166.672C175.529 168.016 175.828 169.445 175.828 170.96C175.828 172.517 175.529 173.979 174.932 175.344C174.356 176.709 173.545 177.915 172.5 178.96C171.476 179.984 170.281 180.795 168.916 181.392C167.572 181.968 166.121 182.256 164.564 182.256H159.124ZM162.068 176.4H164.66C165.62 176.4 166.505 176.165 167.316 175.696C168.126 175.205 168.766 174.565 169.236 173.776C169.726 172.965 169.972 172.069 169.972 171.088C169.972 170.107 169.726 169.211 169.236 168.4C168.766 167.589 168.126 166.949 167.316 166.48C166.505 165.989 165.609 165.744 164.628 165.744H162.068V176.4ZM198.371 178.224C198.691 178.864 198.861 179.408 198.883 179.856C198.904 180.304 198.765 180.699 198.467 181.04C198.168 181.381 197.688 181.723 197.027 182.064C196.003 182.555 195.213 182.704 194.659 182.512C194.104 182.341 193.581 181.733 193.091 180.688L187.651 169.552L182.275 180.72C181.763 181.723 181.229 182.309 180.675 182.48C180.12 182.672 179.341 182.523 178.339 182.032C177.677 181.712 177.187 181.381 176.867 181.04C176.568 180.699 176.429 180.304 176.451 179.856C176.472 179.408 176.643 178.864 176.963 178.224L184.995 161.584C185.251 161.072 185.624 160.667 186.115 160.368C186.627 160.048 187.149 159.888 187.683 159.888C188.067 159.888 188.419 159.963 188.739 160.112C189.08 160.24 189.389 160.432 189.667 160.688C189.944 160.944 190.168 161.253 190.339 161.616L198.371 178.224ZM182.595 177.648L185.027 172.656H190.307L192.739 177.648H182.595ZM204.673 182.256C203.713 182.256 203.03 182.117 202.625 181.84C202.219 181.541 201.974 181.168 201.889 180.72C201.803 180.251 201.761 179.781 201.761 179.312V162.8C201.761 162.331 201.803 161.872 201.889 161.424C201.974 160.976 202.219 160.613 202.625 160.336C203.03 160.037 203.723 159.888 204.705 159.888H211.137C211.947 159.888 212.822 160.059 213.761 160.4C214.699 160.72 215.585 161.221 216.417 161.904C217.249 162.587 217.931 163.44 218.465 164.464C218.998 165.488 219.265 166.704 219.265 168.112C219.265 169.093 219.115 170.011 218.817 170.864C218.539 171.717 218.113 172.496 217.537 173.2C216.982 173.883 216.299 174.491 215.489 175.024C214.699 175.536 213.793 175.941 212.769 176.24H207.617V179.344C207.617 179.813 207.574 180.272 207.489 180.72C207.403 181.168 207.158 181.541 206.753 181.84C206.347 182.117 205.654 182.256 204.673 182.256ZM218.081 181.488C217.121 182.213 216.363 182.501 215.809 182.352C215.254 182.224 214.657 181.733 214.017 180.88L208.129 172.88L214.785 172.048L218.753 177.392C219.179 178.011 219.446 178.533 219.553 178.96C219.681 179.387 219.627 179.792 219.393 180.176C219.158 180.56 218.721 180.997 218.081 181.488ZM207.617 170.416H211.137C211.329 170.416 211.553 170.384 211.809 170.32C212.086 170.235 212.342 170.107 212.577 169.936C212.811 169.744 213.003 169.499 213.153 169.2C213.323 168.901 213.409 168.528 213.409 168.08C213.409 167.632 213.302 167.237 213.089 166.896C212.875 166.533 212.587 166.256 212.225 166.064C211.883 165.851 211.499 165.744 211.073 165.744H207.617V170.416ZM118.991 221.608C118.159 221.608 117.231 221.469 116.207 221.192C115.183 220.936 114.149 220.52 113.103 219.944C112.079 219.368 111.13 218.621 110.255 217.704C109.402 216.787 108.709 215.688 108.175 214.408C107.663 213.128 107.407 211.645 107.407 209.96C107.407 208.339 107.663 206.909 108.175 205.672C108.709 204.435 109.402 203.368 110.255 202.472C111.109 201.576 112.047 200.851 113.071 200.296C114.117 199.741 115.162 199.336 116.207 199.08C117.253 198.803 118.213 198.664 119.087 198.664C120.175 198.664 121.135 198.803 121.967 199.08C122.799 199.336 123.471 199.613 123.983 199.912C124.517 200.189 124.847 200.371 124.975 200.456C125.402 200.733 125.797 201.043 126.159 201.384C126.543 201.704 126.735 202.141 126.735 202.696C126.735 202.973 126.671 203.261 126.543 203.56C126.437 203.859 126.266 204.168 126.031 204.488C125.605 205.085 125.199 205.523 124.815 205.8C124.453 206.077 124.09 206.216 123.727 206.216C123.45 206.216 123.183 206.152 122.927 206.024C122.671 205.896 122.362 205.715 121.999 205.48C121.85 205.373 121.658 205.256 121.423 205.128C121.189 204.979 120.869 204.851 120.463 204.744C120.058 204.616 119.525 204.552 118.863 204.552C118.309 204.552 117.701 204.659 117.039 204.872C116.399 205.064 115.791 205.384 115.215 205.832C114.639 206.259 114.17 206.835 113.807 207.56C113.445 208.264 113.263 209.117 113.263 210.12C113.263 211.144 113.445 212.008 113.807 212.712C114.191 213.416 114.671 213.992 115.247 214.44C115.823 214.867 116.431 215.187 117.071 215.4C117.733 215.592 118.33 215.688 118.863 215.688C119.418 215.688 119.887 215.645 120.271 215.56C120.655 215.453 120.997 215.315 121.295 215.144C121.615 214.973 121.903 214.803 122.159 214.632C122.394 214.461 122.65 214.312 122.927 214.184C123.205 214.056 123.482 213.992 123.759 213.992C124.122 213.992 124.485 214.141 124.847 214.44C125.21 214.739 125.594 215.197 125.999 215.816C126.234 216.179 126.405 216.52 126.511 216.84C126.639 217.139 126.703 217.416 126.703 217.672C126.703 218.205 126.511 218.632 126.127 218.952C125.765 219.272 125.37 219.56 124.943 219.816C124.794 219.901 124.474 220.093 123.983 220.392C123.493 220.691 122.831 220.968 121.999 221.224C121.167 221.48 120.165 221.608 118.991 221.608ZM132.555 221.288C131.595 221.288 130.912 221.149 130.507 220.872C130.102 220.573 129.856 220.2 129.771 219.752C129.686 219.283 129.643 218.813 129.643 218.344V201.8C129.643 201.331 129.686 200.872 129.771 200.424C129.856 199.976 130.102 199.613 130.507 199.336C130.912 199.037 131.606 198.888 132.587 198.888C133.568 198.888 134.251 199.037 134.635 199.336C135.04 199.613 135.286 199.976 135.371 200.424C135.456 200.872 135.499 201.341 135.499 201.832V218.376C135.499 218.845 135.456 219.304 135.371 219.752C135.286 220.2 135.04 220.573 134.635 220.872C134.23 221.149 133.536 221.288 132.555 221.288ZM155.571 198.856C155.976 198.856 156.36 198.888 156.723 198.952C157.086 199.016 157.384 199.219 157.619 199.56C157.875 199.901 158.003 200.488 158.003 201.32C158.003 202.131 157.875 202.717 157.619 203.08C157.384 203.421 157.075 203.624 156.691 203.688C156.328 203.752 155.944 203.784 155.539 203.784H151.123V218.44C151.123 218.909 151.08 219.368 150.995 219.816C150.91 220.243 150.664 220.595 150.259 220.872C149.875 221.149 149.192 221.288 148.211 221.288C147.272 221.288 146.6 221.149 146.195 220.872C145.79 220.573 145.544 220.211 145.459 219.784C145.395 219.336 145.363 218.877 145.363 218.408V203.784H140.915C140.531 203.784 140.147 203.752 139.763 203.688C139.4 203.603 139.091 203.389 138.835 203.048C138.6 202.707 138.483 202.12 138.483 201.288C138.483 200.477 138.6 199.901 138.835 199.56C139.091 199.219 139.411 199.016 139.795 198.952C140.179 198.888 140.563 198.856 140.947 198.856H155.571ZM176.371 217.224C176.691 217.864 176.861 218.408 176.883 218.856C176.904 219.304 176.765 219.699 176.467 220.04C176.168 220.381 175.688 220.723 175.027 221.064C174.003 221.555 173.213 221.704 172.659 221.512C172.104 221.341 171.581 220.733 171.091 219.688L165.651 208.552L160.275 219.72C159.763 220.723 159.229 221.309 158.675 221.48C158.12 221.672 157.341 221.523 156.339 221.032C155.677 220.712 155.187 220.381 154.867 220.04C154.568 219.699 154.429 219.304 154.451 218.856C154.472 218.408 154.643 217.864 154.963 217.224L162.995 200.584C163.251 200.072 163.624 199.667 164.115 199.368C164.627 199.048 165.149 198.888 165.683 198.888C166.067 198.888 166.419 198.963 166.739 199.112C167.08 199.24 167.389 199.432 167.667 199.688C167.944 199.944 168.168 200.253 168.339 200.616L176.371 217.224ZM160.595 216.648L163.027 211.656H168.307L170.739 216.648H160.595Z" fill="white"/>
<path d="M125.714 40C128.717 40 131.143 42.402 131.143 45.375V50.75H152.857V45.375C152.857 42.402 155.283 40 158.286 40C161.288 40 163.714 42.402 163.714 45.375V50.75H171.857C176.353 50.75 180 54.3613 180 58.8125V66.875H104V58.8125C104 54.3613 107.647 50.75 112.143 50.75H120.286V45.375C120.286 42.402 122.712 40 125.714 40ZM104 72.25H180V117.938C180 122.389 176.353 126 171.857 126H112.143C107.647 126 104 122.389 104 117.938V72.25ZM117.571 83C116.079 83 114.857 84.2094 114.857 85.6875V101.812C114.857 103.291 116.079 104.5 117.571 104.5H133.857C135.35 104.5 136.571 103.291 136.571 101.812V85.6875C136.571 84.2094 135.35 83 133.857 83H117.571Z" fill="white"/>
</g>
<defs>
<filter id="filter0_d_28_204" x="0" y="0" width="298" height="300" filterUnits="userSpaceOnUse" color-interpolation-filters="sRGB">
<feFlood flood-opacity="0" result="BackgroundImageFix"/>
<feColorMatrix in="SourceAlpha" type="matrix" values="0 0 0 0 0 0 0 0 0 0 0 0 0 0 0 0 0 0 127 0" result="hardAlpha"/>
<feOffset dx="6" dy="8"/>
<feGaussianBlur stdDeviation="2"/>
<feComposite in2="hardAlpha" operator="out"/>
<feColorMatrix type="matrix" values="0 0 0 0 0 0 0 0 0 0 0 0 0 0 0 0 0 0 0.25 0"/>
<feBlend mode="normal" in2="BackgroundImageFix" result="effect1_dropShadow_28_204"/>
<feBlend mode="normal" in="SourceGraphic" in2="effect1_dropShadow_28_204" result="shape"/>
</filter>
</defs>
</svg>
