<svg width="298" height="300" viewBox="0 0 298 300" fill="none" xmlns="http://www.w3.org/2000/svg">
<g filter="url(#filter0_d_28_223)">
<rect width="288" height="288" rx="60" fill="#778CF8" fill-opacity="0.5"/>
<path d="M110.694 181.288C109.638 181.288 108.882 181.132 108.426 180.82C107.97 180.508 107.694 180.1 107.598 179.596C107.502 179.092 107.454 178.552 107.454 177.976V159.4C107.454 158.872 107.502 158.368 107.598 157.888C107.694 157.384 107.97 156.976 108.426 156.664C108.882 156.328 109.662 156.16 110.766 156.16C111.51 156.16 112.05 156.208 112.386 156.304C112.746 156.4 112.998 156.52 113.142 156.664C113.31 156.808 113.478 156.976 113.646 157.168L121.098 166.744H120.882L128.298 157.204C128.538 156.94 128.754 156.736 128.946 156.592C129.162 156.448 129.438 156.34 129.774 156.268C130.134 156.196 130.638 156.16 131.286 156.16C132.366 156.16 133.134 156.328 133.59 156.664C134.046 156.976 134.322 157.384 134.418 157.888C134.514 158.392 134.562 158.92 134.562 159.472V178.048C134.562 178.576 134.514 179.092 134.418 179.596C134.322 180.1 134.046 180.508 133.59 180.82C133.134 181.132 132.354 181.288 131.25 181.288C130.17 181.288 129.402 181.132 128.946 180.82C128.49 180.484 128.214 180.064 128.118 179.56C128.022 179.032 127.974 178.504 127.974 177.976V167.752L123.762 173.476C123.666 173.596 123.522 173.776 123.33 174.016C123.138 174.256 122.862 174.472 122.502 174.664C122.142 174.856 121.638 174.952 120.99 174.952C120.342 174.952 119.826 174.856 119.442 174.664C119.082 174.472 118.806 174.268 118.614 174.052C118.422 173.812 118.278 173.62 118.182 173.476L114.006 167.788V178.048C114.006 178.576 113.958 179.092 113.862 179.596C113.766 180.1 113.49 180.508 113.034 180.82C112.578 181.132 111.798 181.288 110.694 181.288ZM141.64 181.324C140.56 181.324 139.792 181.168 139.336 180.856C138.88 180.52 138.604 180.1 138.508 179.596C138.412 179.068 138.364 178.54 138.364 178.012V159.4C138.364 158.872 138.412 158.356 138.508 157.852C138.604 157.348 138.88 156.94 139.336 156.628C139.792 156.292 140.572 156.124 141.676 156.124C142.78 156.124 143.548 156.292 143.98 156.628C144.436 156.94 144.712 157.348 144.808 157.852C144.904 158.356 144.952 158.884 144.952 159.436V178.048C144.952 178.576 144.904 179.092 144.808 179.596C144.712 180.1 144.436 180.52 143.98 180.856C143.524 181.168 142.744 181.324 141.64 181.324ZM157.525 181.684C156.061 181.684 154.813 181.504 153.781 181.144C152.773 180.784 151.945 180.364 151.297 179.884C150.649 179.38 150.157 178.924 149.821 178.516C149.485 178.108 149.281 177.856 149.209 177.76C148.729 177.16 148.429 176.62 148.309 176.14C148.213 175.66 148.285 175.18 148.525 174.7C148.789 174.22 149.221 173.692 149.821 173.116C150.373 172.588 150.913 172.3 151.441 172.252C151.969 172.18 152.485 172.288 152.989 172.576C153.517 172.864 154.021 173.284 154.501 173.836C155.077 174.484 155.569 174.928 155.977 175.168C156.385 175.384 156.853 175.492 157.381 175.492C158.029 175.492 158.557 175.42 158.965 175.276C159.373 175.108 159.673 174.868 159.865 174.556C160.057 174.22 160.153 173.8 160.153 173.296C160.153 172.888 159.949 172.576 159.541 172.36C159.133 172.12 158.593 171.916 157.921 171.748C157.273 171.58 156.541 171.4 155.725 171.208C154.909 170.992 154.105 170.716 153.313 170.38C152.833 170.188 152.365 169.948 151.909 169.66C151.453 169.372 151.021 169.048 150.613 168.688C150.229 168.304 149.893 167.86 149.605 167.356C149.317 166.828 149.089 166.24 148.921 165.592C148.777 164.944 148.705 164.212 148.705 163.396C148.705 161.932 149.065 160.624 149.785 159.472C150.529 158.32 151.537 157.408 152.809 156.736C154.105 156.064 155.569 155.728 157.201 155.728C158.377 155.728 159.385 155.824 160.225 156.016C161.065 156.208 161.749 156.436 162.277 156.7C162.829 156.964 163.249 157.216 163.537 157.456C163.825 157.672 164.005 157.816 164.077 157.888C164.869 158.608 165.301 159.232 165.373 159.76C165.445 160.264 165.157 160.996 164.509 161.956C163.789 162.988 163.081 163.576 162.385 163.72C161.689 163.84 160.885 163.612 159.973 163.036C159.781 162.892 159.589 162.736 159.397 162.568C159.205 162.376 158.941 162.22 158.605 162.1C158.293 161.956 157.813 161.884 157.165 161.884C156.925 161.884 156.685 161.932 156.445 162.028C156.205 162.1 156.001 162.208 155.833 162.352C155.665 162.472 155.521 162.628 155.401 162.82C155.305 163.012 155.257 163.216 155.257 163.432C155.257 163.936 155.449 164.332 155.833 164.62C156.217 164.884 156.721 165.088 157.345 165.232C157.993 165.376 158.701 165.52 159.469 165.664C160.237 165.808 161.017 166 161.809 166.24C162.457 166.456 163.081 166.732 163.681 167.068C164.281 167.404 164.809 167.836 165.265 168.364C165.721 168.892 166.081 169.552 166.345 170.344C166.633 171.112 166.777 172.06 166.777 173.188C166.777 174.748 166.477 176.08 165.877 177.184C165.277 178.264 164.497 179.14 163.537 179.812C162.601 180.46 161.593 180.928 160.513 181.216C159.457 181.528 158.461 181.684 157.525 181.684ZM105.459 225.684C104.523 225.684 103.479 225.528 102.327 225.216C101.175 224.928 100.011 224.46 98.8354 223.812C97.6834 223.164 96.6154 222.324 95.6314 221.292C94.6714 220.26 93.8914 219.024 93.2914 217.584C92.7154 216.144 92.4274 214.476 92.4274 212.58C92.4274 210.756 92.7154 209.148 93.2914 207.756C93.8914 206.364 94.6714 205.164 95.6314 204.156C96.5914 203.148 97.6474 202.332 98.7994 201.708C99.9754 201.084 101.151 200.628 102.327 200.34C103.503 200.028 104.583 199.872 105.567 199.872C106.791 199.872 107.871 200.028 108.807 200.34C109.743 200.628 110.499 200.94 111.075 201.276C111.675 201.588 112.047 201.792 112.191 201.888C112.671 202.2 113.115 202.548 113.523 202.932C113.955 203.292 114.171 203.784 114.171 204.408C114.171 204.72 114.099 205.044 113.955 205.38C113.835 205.716 113.643 206.064 113.379 206.424C112.899 207.096 112.443 207.588 112.011 207.9C111.603 208.212 111.195 208.368 110.787 208.368C110.475 208.368 110.175 208.296 109.887 208.152C109.599 208.008 109.251 207.804 108.843 207.54C108.675 207.42 108.459 207.288 108.195 207.144C107.931 206.976 107.571 206.832 107.115 206.712C106.659 206.568 106.059 206.496 105.315 206.496C104.691 206.496 104.007 206.616 103.263 206.856C102.543 207.072 101.859 207.432 101.211 207.936C100.563 208.416 100.035 209.064 99.6274 209.88C99.2194 210.672 99.0154 211.632 99.0154 212.76C99.0154 213.912 99.2194 214.884 99.6274 215.676C100.059 216.468 100.599 217.116 101.247 217.62C101.895 218.1 102.579 218.46 103.299 218.7C104.043 218.916 104.715 219.024 105.315 219.024C105.939 219.024 106.467 218.976 106.899 218.88C107.331 218.76 107.715 218.604 108.051 218.412C108.411 218.22 108.735 218.028 109.023 217.836C109.287 217.644 109.575 217.476 109.887 217.332C110.199 217.188 110.511 217.116 110.823 217.116C111.231 217.116 111.639 217.284 112.047 217.62C112.455 217.956 112.887 218.472 113.343 219.168C113.607 219.576 113.799 219.96 113.919 220.32C114.063 220.656 114.135 220.968 114.135 221.256C114.135 221.856 113.919 222.336 113.487 222.696C113.079 223.056 112.635 223.38 112.155 223.668C111.987 223.764 111.627 223.98 111.075 224.316C110.523 224.652 109.779 224.964 108.843 225.252C107.907 225.54 106.779 225.684 105.459 225.684ZM120.718 225.324C119.638 225.324 118.87 225.168 118.414 224.856C117.958 224.52 117.682 224.1 117.586 223.596C117.49 223.068 117.442 222.54 117.442 222.012V203.4C117.442 202.872 117.49 202.356 117.586 201.852C117.682 201.348 117.958 200.94 118.414 200.628C118.87 200.292 119.65 200.124 120.754 200.124C121.858 200.124 122.626 200.292 123.058 200.628C123.514 200.94 123.79 201.348 123.886 201.852C123.982 202.356 124.03 202.884 124.03 203.436V222.048C124.03 222.576 123.982 223.092 123.886 223.596C123.79 224.1 123.514 224.52 123.058 224.856C122.602 225.168 121.822 225.324 120.718 225.324ZM146.612 200.088C147.068 200.088 147.5 200.124 147.908 200.196C148.316 200.268 148.652 200.496 148.916 200.88C149.204 201.264 149.348 201.924 149.348 202.86C149.348 203.772 149.204 204.432 148.916 204.84C148.652 205.224 148.304 205.452 147.872 205.524C147.464 205.596 147.032 205.632 146.576 205.632H141.608V222.12C141.608 222.648 141.56 223.164 141.464 223.668C141.368 224.148 141.092 224.544 140.636 224.856C140.204 225.168 139.436 225.324 138.332 225.324C137.276 225.324 136.52 225.168 136.064 224.856C135.608 224.52 135.332 224.112 135.236 223.632C135.164 223.128 135.128 222.612 135.128 222.084V205.632H130.124C129.692 205.632 129.26 205.596 128.828 205.524C128.42 205.428 128.072 205.188 127.784 204.804C127.52 204.42 127.388 203.76 127.388 202.824C127.388 201.912 127.52 201.264 127.784 200.88C128.072 200.496 128.432 200.268 128.864 200.196C129.296 200.124 129.728 200.088 130.16 200.088H146.612ZM170.011 220.752C170.371 221.472 170.563 222.084 170.587 222.588C170.611 223.092 170.455 223.536 170.119 223.92C169.783 224.304 169.243 224.688 168.499 225.072C167.347 225.624 166.459 225.792 165.835 225.576C165.211 225.384 164.623 224.7 164.071 223.524L157.951 210.996L151.903 223.56C151.327 224.688 150.727 225.348 150.103 225.54C149.479 225.756 148.603 225.588 147.475 225.036C146.731 224.676 146.179 224.304 145.819 223.92C145.483 223.536 145.327 223.092 145.351 222.588C145.375 222.084 145.567 221.472 145.927 220.752L154.963 202.032C155.251 201.456 155.671 201 156.223 200.664C156.799 200.304 157.387 200.124 157.987 200.124C158.419 200.124 158.815 200.208 159.175 200.376C159.559 200.52 159.907 200.736 160.219 201.024C160.531 201.312 160.783 201.66 160.975 202.068L170.011 220.752ZM152.263 220.104L154.999 214.488H160.939L163.675 220.104H152.263ZM182.321 225.684C180.857 225.684 179.609 225.504 178.577 225.144C177.569 224.784 176.741 224.364 176.093 223.884C175.445 223.38 174.953 222.924 174.617 222.516C174.281 222.108 174.077 221.856 174.005 221.76C173.525 221.16 173.225 220.62 173.105 220.14C173.009 219.66 173.081 219.18 173.321 218.7C173.585 218.22 174.017 217.692 174.617 217.116C175.169 216.588 175.709 216.3 176.237 216.252C176.765 216.18 177.281 216.288 177.785 216.576C178.313 216.864 178.817 217.284 179.297 217.836C179.873 218.484 180.365 218.928 180.773 219.168C181.181 219.384 181.649 219.492 182.177 219.492C182.825 219.492 183.353 219.42 183.761 219.276C184.169 219.108 184.469 218.868 184.661 218.556C184.853 218.22 184.949 217.8 184.949 217.296C184.949 216.888 184.745 216.576 184.337 216.36C183.929 216.12 183.389 215.916 182.717 215.748C182.069 215.58 181.337 215.4 180.521 215.208C179.705 214.992 178.901 214.716 178.109 214.38C177.629 214.188 177.161 213.948 176.705 213.66C176.249 213.372 175.817 213.048 175.409 212.688C175.025 212.304 174.689 211.86 174.401 211.356C174.113 210.828 173.885 210.24 173.717 209.592C173.573 208.944 173.501 208.212 173.501 207.396C173.501 205.932 173.861 204.624 174.581 203.472C175.325 202.32 176.333 201.408 177.605 200.736C178.901 200.064 180.365 199.728 181.997 199.728C183.173 199.728 184.181 199.824 185.021 200.016C185.861 200.208 186.545 200.436 187.073 200.7C187.625 200.964 188.045 201.216 188.333 201.456C188.621 201.672 188.801 201.816 188.873 201.888C189.665 202.608 190.097 203.232 190.169 203.76C190.241 204.264 189.953 204.996 189.305 205.956C188.585 206.988 187.877 207.576 187.181 207.72C186.485 207.84 185.681 207.612 184.769 207.036C184.577 206.892 184.385 206.736 184.193 206.568C184.001 206.376 183.737 206.22 183.401 206.1C183.089 205.956 182.609 205.884 181.961 205.884C181.721 205.884 181.481 205.932 181.241 206.028C181.001 206.1 180.797 206.208 180.629 206.352C180.461 206.472 180.317 206.628 180.197 206.82C180.101 207.012 180.053 207.216 180.053 207.432C180.053 207.936 180.245 208.332 180.629 208.62C181.013 208.884 181.517 209.088 182.141 209.232C182.789 209.376 183.497 209.52 184.265 209.664C185.033 209.808 185.813 210 186.605 210.24C187.253 210.456 187.877 210.732 188.477 211.068C189.077 211.404 189.605 211.836 190.061 212.364C190.517 212.892 190.877 213.552 191.141 214.344C191.429 215.112 191.573 216.06 191.573 217.188C191.573 218.748 191.273 220.08 190.673 221.184C190.073 222.264 189.293 223.14 188.333 223.812C187.397 224.46 186.389 224.928 185.309 225.216C184.253 225.528 183.257 225.684 182.321 225.684Z" fill="white"/>
</g>
<path d="M127.714 40C130.717 40 133.143 42.402 133.143 45.375V50.75H154.857V45.375C154.857 42.402 157.283 40 160.286 40C163.288 40 165.714 42.402 165.714 45.375V50.75H173.857C178.353 50.75 182 54.3613 182 58.8125V66.875H106V58.8125C106 54.3613 109.647 50.75 114.143 50.75H122.286V45.375C122.286 42.402 124.712 40 127.714 40ZM106 72.25H182V117.938C182 122.389 178.353 126 173.857 126H114.143C109.647 126 106 122.389 106 117.938V72.25ZM116.857 85.6875V91.0625C116.857 92.5406 118.079 93.75 119.571 93.75H125C126.493 93.75 127.714 92.5406 127.714 91.0625V85.6875C127.714 84.2094 126.493 83 125 83H119.571C118.079 83 116.857 84.2094 116.857 85.6875ZM138.571 85.6875V91.0625C138.571 92.5406 139.793 93.75 141.286 93.75H146.714C148.207 93.75 149.429 92.5406 149.429 91.0625V85.6875C149.429 84.2094 148.207 83 146.714 83H141.286C139.793 83 138.571 84.2094 138.571 85.6875ZM163 83C161.507 83 160.286 84.2094 160.286 85.6875V91.0625C160.286 92.5406 161.507 93.75 163 93.75H168.429C169.921 93.75 171.143 92.5406 171.143 91.0625V85.6875C171.143 84.2094 169.921 83 168.429 83H163ZM116.857 107.188V112.562C116.857 114.041 118.079 115.25 119.571 115.25H125C126.493 115.25 127.714 114.041 127.714 112.562V107.188C127.714 105.709 126.493 104.5 125 104.5H119.571C118.079 104.5 116.857 105.709 116.857 107.188ZM141.286 104.5C139.793 104.5 138.571 105.709 138.571 107.188V112.562C138.571 114.041 139.793 115.25 141.286 115.25H146.714C148.207 115.25 149.429 114.041 149.429 112.562V107.188C149.429 105.709 148.207 104.5 146.714 104.5H141.286ZM160.286 107.188V112.562C160.286 114.041 161.507 115.25 163 115.25H168.429C169.921 115.25 171.143 114.041 171.143 112.562V107.188C171.143 105.709 169.921 104.5 168.429 104.5H163C161.507 104.5 160.286 105.709 160.286 107.188Z" fill="white"/>
<defs>
<filter id="filter0_d_28_223" x="0" y="0" width="298" height="300" filterUnits="userSpaceOnUse" color-interpolation-filters="sRGB">
<feFlood flood-opacity="0" result="BackgroundImageFix"/>
<feColorMatrix in="SourceAlpha" type="matrix" values="0 0 0 0 0 0 0 0 0 0 0 0 0 0 0 0 0 0 127 0" result="hardAlpha"/>
<feOffset dx="6" dy="8"/>
<feGaussianBlur stdDeviation="2"/>
<feComposite in2="hardAlpha" operator="out"/>
<feColorMatrix type="matrix" values="0 0 0 0 0 0 0 0 0 0 0 0 0 0 0 0 0 0 0.25 0"/>
<feBlend mode="normal" in2="BackgroundImageFix" result="effect1_dropShadow_28_223"/>
<feBlend mode="normal" in="SourceGraphic" in2="effect1_dropShadow_28_223" result="shape"/>
</filter>
</defs>
</svg>
