<svg width="140" height="140" viewBox="0 0 140 140" fill="#07B3B3" xmlns="http://www.w3.org/2000/svg">
<g clip-path="url(#clip0_69_53)">
<path d="M70 140C88.5652 140 106.37 132.625 119.497 119.497C132.625 106.37 140 88.5652 140 70C140 51.4348 132.625 33.6301 119.497 20.5025C106.37 7.37498 88.5652 0 70 0C51.4348 0 33.6301 7.37498 20.5025 20.5025C7.37498 33.6301 0 51.4348 0 70C0 88.5652 7.37498 106.37 20.5025 119.497C33.6301 132.625 51.4348 140 70 140ZM36.9414 59.4453L66.2266 32.1289C67.2656 31.1719 68.6055 30.625 70 30.625C71.3945 30.625 72.7617 31.1719 73.7734 32.1289L103.059 59.4453C104.289 60.5938 105 62.207 105 63.9023C105 67.2656 102.266 70 98.9023 70H83.125V96.25C83.125 101.09 79.2148 105 74.375 105H65.625C60.7852 105 56.875 101.09 56.875 96.25V70H41.0977C37.7344 70 35 67.2656 35 63.9023C35 62.207 35.7109 60.5938 36.9414 59.4453Z" fill="#07B3B3"/>
</g>
<defs>
<clipPath id="clip0_69_53">
<rect width="140" height="140" fill="white"/>
</clipPath>
</defs>
</svg>
