<svg width="46" height="46" viewBox="0 0 46 46" fill="none" xmlns="http://www.w3.org/2000/svg">
<g clip-path="url(#clip0_173_191)">
<path d="M4.61888 6.08069C2.28978 6.08069 0.400131 7.97034 0.400131 10.2994C0.400131 11.6266 1.02415 12.8746 2.08763 13.6744L21.2126 28.0182C22.2146 28.7653 23.5857 28.7653 24.5876 28.0182L43.7126 13.6744C44.7761 12.8746 45.4001 11.6266 45.4001 10.2994C45.4001 7.97034 43.5105 6.08069 41.1814 6.08069H4.61888ZM0.400131 15.9244V34.2057C0.400131 37.3082 2.92259 39.8307 6.02513 39.8307H39.7751C42.8777 39.8307 45.4001 37.3082 45.4001 34.2057V15.9244L26.2751 30.2682C24.2712 31.7711 21.529 31.7711 19.5251 30.2682L0.400131 15.9244Z" fill="#778CF8"/>
</g>
<defs>
<clipPath id="clip0_173_191">
<rect width="45" height="45" fill="white" transform="translate(0.400131 0.455688)"/>
</clipPath>
</defs>
</svg>
