<svg width="200" height="166" viewBox="0 0 200 166" fill="none" xmlns="http://www.w3.org/2000/svg">
<path d="M101.062 27.6234L70.8125 53.0422C65.7812 57.257 64.8125 64.8438 68.625 70.2582C72.6562 76.0293 80.5 77.1641 85.9062 72.7871L116.938 47.7574C119.125 46.0066 122.25 46.3957 123.969 48.6652C125.688 50.9348 125.281 54.177 123.094 55.9602L116.562 61.2125L171.938 114.125H185C193.281 114.125 200 107.154 200 98.5625V57.0625C200 48.4707 193.281 41.5 185 41.5H161.25H160H159.781L158.562 40.6895L135.875 25.6133C131.094 22.4359 125.5 20.75 119.812 20.75C113 20.75 106.375 23.1816 101.062 27.6234ZM108.188 67.9563L92.0312 80.9898C82.1875 88.9656 67.9062 86.8906 60.5312 76.3859C53.5938 66.4973 55.3438 52.6855 64.5 45.0016L90.5 23.1816C86.875 21.593 82.9688 20.7824 79 20.7824C73.125 20.75 67.4062 22.5656 62.5 25.9375L40 41.5H15C6.71875 41.5 0 48.4707 0 57.0625V98.5625C0 107.154 6.71875 114.125 15 114.125H48.8125L77.375 141.165C83.5 146.968 92.9688 146.514 98.5625 140.16C100.281 138.182 101.438 135.88 102.031 133.481L107.344 138.539C113.438 144.342 122.938 143.921 128.531 137.598C129.938 136.01 130.969 134.162 131.625 132.249C137.688 136.464 145.938 135.588 151.031 129.817C156.625 123.495 156.219 113.639 150.125 107.835L108.188 67.9563Z" fill="#07B3B3"/>
</svg>
