<svg width="200" height="166" viewBox="0 0 200 166" fill="none" xmlns="http://www.w3.org/2000/svg">
<g clip-path="url(#clip0_69_77)">
<path d="M100 0C105.531 0 110 4.63633 110 10.375V77.8125C110 80.6656 112.25 83 115 83C117.75 83 120 80.6656 120 77.8125V20.75C120 15.0113 124.469 10.375 130 10.375C135.531 10.375 140 15.0113 140 20.75V77.8125C140 80.6656 142.25 83 145 83C147.75 83 150 80.6656 150 77.8125V41.5C150 35.7613 154.469 31.125 160 31.125C165.531 31.125 170 35.7613 170 41.5V104.755C166.281 106.311 163.344 109.586 162.188 113.768L159.406 123.884L149.656 126.77C143.938 128.488 140 133.902 140 140.062C140 146.19 143.906 151.605 149.562 153.323C140.125 161.266 128.094 166 115 166H109C90.375 166 72.4688 158.575 59 145.25L23.875 110.559C18.875 105.63 18.6875 97.3953 23.4375 92.2078C28.1875 87.0203 36.125 86.8258 41.125 91.7539L60.0312 110.429C60.0312 109.943 60 109.424 60 108.938V20.75C60 15.0113 64.4688 10.375 70 10.375C75.5312 10.375 80 15.0113 80 20.75V77.8125C80 80.6656 82.25 83 85 83C87.75 83 90 80.6656 90 77.8125V10.375C90 4.63633 94.4688 0 100 0ZM97.7188 105.89C97.375 104.625 96.25 103.75 95 103.75C93.75 103.75 92.625 104.625 92.2812 105.89L90 114.125L82.0625 116.492C80.8438 116.848 80 118.016 80 119.312C80 120.609 80.8438 121.777 82.0625 122.133L90 124.5L92.2812 132.735C92.625 134 93.75 134.875 95 134.875C96.25 134.875 97.375 134 97.7188 132.735L100 124.5L107.938 122.133C109.156 121.777 110 120.609 110 119.312C110 118.016 109.156 116.848 107.938 116.492L100 114.125L97.7188 105.89ZM32.5 38.9062L47.5938 43.3805C49.0312 43.802 50 45.1637 50 46.6875C50 48.2113 49.0312 49.573 47.5938 49.9945L32.5 54.4688L28.1875 70.1285C27.7812 71.6199 26.4688 72.625 25 72.625C23.5312 72.625 22.2188 71.6199 21.8125 70.1285L17.5 54.4688L2.40625 49.9945C0.96875 49.573 0 48.2113 0 46.6875C0 45.1637 0.96875 43.802 2.40625 43.3805L17.5 38.9062L21.8125 23.2465C22.2188 21.7551 23.5312 20.75 25 20.75C26.4688 20.75 27.7812 21.7551 28.1875 23.2465L32.5 38.9062ZM182.5 132.281L197.594 136.755C199.031 137.177 200 138.539 200 140.062C200 141.586 199.031 142.948 197.594 143.37L182.5 147.844L178.188 163.504C177.781 164.995 176.469 166 175 166C173.531 166 172.219 164.995 171.812 163.504L167.5 147.844L152.406 143.37C150.969 142.948 150 141.586 150 140.062C150 138.539 150.969 137.177 152.406 136.755L167.5 132.281L171.812 116.621C172.219 115.13 173.531 114.125 175 114.125C176.469 114.125 177.781 115.13 178.188 116.621L182.5 132.281Z" fill="#07B3B3"/>
</g>
<defs>
<clipPath id="clip0_69_77">
<rect width="200" height="166" fill="white"/>
</clipPath>
</defs>
</svg>
