<svg width="140" height="140" viewBox="0 0 140 140" fill="#07B3B3" xmlns="http://www.w3.org/2000/svg">
<g clip-path="url(#clip0_69_23)">
<path d="M70 140C88.5652 140 106.37 132.625 119.497 119.497C132.625 106.37 140 88.5652 140 70C140 51.4348 132.625 33.6301 119.497 20.5025C106.37 7.37498 88.5652 0 70 0C51.4348 0 33.6301 7.37498 20.5025 20.5025C7.37498 33.6301 0 51.4348 0 70C0 88.5652 7.37498 106.37 20.5025 119.497C33.6301 132.625 51.4348 140 70 140ZM44.8711 89.0039C49.7656 94.6641 58.1328 100.625 70 100.625C81.8672 100.625 90.2344 94.6641 95.1289 89.0039C96.7148 87.1719 99.4766 86.9805 101.309 88.5664C103.141 90.1523 103.332 92.9141 101.746 94.7461C95.6484 101.746 85.0664 109.375 70 109.375C54.9336 109.375 44.3516 101.746 38.2539 94.7461C36.668 92.9141 36.8594 90.1523 38.6914 88.5664C40.5234 86.9805 43.2852 87.1719 44.8711 89.0039ZM39.4844 56.875C39.4844 54.5544 40.4062 52.3288 42.0472 50.6878C43.6881 49.0469 45.9137 48.125 48.2344 48.125C50.555 48.125 52.7806 49.0469 54.4216 50.6878C56.0625 52.3288 56.9844 54.5544 56.9844 56.875C56.9844 59.1956 56.0625 61.4212 54.4216 63.0622C52.7806 64.7031 50.555 65.625 48.2344 65.625C45.9137 65.625 43.6881 64.7031 42.0472 63.0622C40.4062 61.4212 39.4844 59.1956 39.4844 56.875ZM91.9844 48.125C94.305 48.125 96.5306 49.0469 98.1716 50.6878C99.8125 52.3288 100.734 54.5544 100.734 56.875C100.734 59.1956 99.8125 61.4212 98.1716 63.0622C96.5306 64.7031 94.305 65.625 91.9844 65.625C89.6637 65.625 87.4381 64.7031 85.7972 63.0622C84.1562 61.4212 83.2344 59.1956 83.2344 56.875C83.2344 54.5544 84.1562 52.3288 85.7972 50.6878C87.4381 49.0469 89.6637 48.125 91.9844 48.125Z" fill="#07B3B3"/>
</g>
<defs>
<clipPath id="clip0_69_23">
<rect width="140" height="140" fill="white"/>
</clipPath>
</defs>
</svg>
