<svg width="140" height="140" viewBox="0 0 140 140" fill="#07B3B3" xmlns="http://www.w3.org/2000/svg">
<path d="M13.0156 82.1404L62.4258 128.269C64.4766 130.183 67.1836 131.25 70 131.25C72.8164 131.25 75.5234 130.183 77.5742 128.269L126.984 82.1404C135.297 74.4021 140 63.5466 140 52.199V50.613C140 31.4998 126.191 15.2029 107.352 12.0583C94.8828 9.98022 82.1953 14.0544 73.2812 22.9685L70 26.2498L66.7188 22.9685C57.8047 14.0544 45.1172 9.98022 32.6484 12.0583C13.8086 15.2029 0 31.4998 0 50.613V52.199C0 63.5466 4.70312 74.4021 13.0156 82.1404Z" fill="#07B3B3"/>
</svg>
