<svg width="45" height="46" viewBox="0 0 45 46" fill="none" xmlns="http://www.w3.org/2000/svg">
<path d="M14.4 3.15564C7.947 3.15564 2.7 8.40264 2.7 14.8556V31.0556C2.7 37.5086 7.947 42.7556 14.4 42.7556H30.6C37.053 42.7556 42.3 37.5086 42.3 31.0556V14.8556C42.3 8.40264 37.053 3.15564 30.6 3.15564H14.4ZM33.3 10.3556C34.29 10.3556 35.1 11.1656 35.1 12.1556C35.1 13.1456 34.29 13.9556 33.3 13.9556C32.31 13.9556 31.5 13.1456 31.5 12.1556C31.5 11.1656 32.31 10.3556 33.3 10.3556ZM22.5 13.0556C27.963 13.0556 32.4 17.4926 32.4 22.9556C32.4 28.4186 27.963 32.8556 22.5 32.8556C17.037 32.8556 12.6 28.4186 12.6 22.9556C12.6 17.4926 17.037 13.0556 22.5 13.0556ZM22.5 14.8556C18.036 14.8556 14.4 18.4916 14.4 22.9556C14.4 27.4196 18.036 31.0556 22.5 31.0556C26.964 31.0556 30.6 27.4196 30.6 22.9556C30.6 18.4916 26.964 14.8556 22.5 14.8556Z" fill="#778CF8"/>
</svg>
