<svg width="77" height="77" viewBox="0 0 77 77" fill="#000" xmlns="http://www.w3.org/2000/svg">
<path d="M24.6401 4.62012C13.5983 4.62012 4.62012 13.5983 4.62012 24.6401V52.3601C4.62012 63.4019 13.5983 72.3801 24.6401 72.3801H52.3601C63.4019 72.3801 72.3801 63.4019 72.3801 52.3601V24.6401C72.3801 13.5983 63.4019 4.62012 52.3601 4.62012H24.6401ZM56.9801 16.9401C58.6741 16.9401 60.0601 18.3261 60.0601 20.0201C60.0601 21.7141 58.6741 23.1001 56.9801 23.1001C55.2861 23.1001 53.9001 21.7141 53.9001 20.0201C53.9001 18.3261 55.2861 16.9401 56.9801 16.9401ZM38.5001 21.5601C47.8479 21.5601 55.4401 29.1523 55.4401 38.5001C55.4401 47.8479 47.8479 55.4401 38.5001 55.4401C29.1523 55.4401 21.5601 47.8479 21.5601 38.5001C21.5601 29.1523 29.1523 21.5601 38.5001 21.5601ZM38.5001 24.6401C30.8617 24.6401 24.6401 30.8617 24.6401 38.5001C24.6401 46.1385 30.8617 52.3601 38.5001 52.3601C46.1385 52.3601 52.3601 46.1385 52.3601 38.5001C52.3601 30.8617 46.1385 24.6401 38.5001 24.6401Z" fill="white"/>
</svg>
