<svg width="200" height="166" viewBox="0 0 200 166" fill="none" xmlns="http://www.w3.org/2000/svg">
<path d="M22.5 28.5312C22.5 23.7159 24.3437 19.0978 27.6256 15.6928C30.9075 12.2879 35.3587 10.375 40 10.375C44.6413 10.375 49.0925 12.2879 52.3744 15.6928C55.6563 19.0978 57.5 23.7159 57.5 28.5312C57.5 33.3466 55.6563 37.9647 52.3744 41.3697C49.0925 44.7746 44.6413 46.6875 40 46.6875C35.3587 46.6875 30.9075 44.7746 27.6256 41.3697C24.3437 37.9647 22.5 33.3466 22.5 28.5312ZM20 79.6605C16.875 83.2918 15 88.1227 15 93.375C15 98.6273 16.875 103.458 20 107.089V79.6605ZM65.125 63.6766C55.8437 72.2035 50 84.6859 50 98.5625C50 109.683 53.75 119.896 60 127.904V134.875C60 140.614 55.5312 145.25 50 145.25H30C24.4688 145.25 20 140.614 20 134.875V126.186C8.1875 120.35 0 107.868 0 93.375C0 73.3059 15.6562 57.0625 35 57.0625H45C52.5 57.0625 59.4375 59.4941 65.125 63.6441V63.6766ZM140 134.875V127.904C146.25 119.896 150 109.683 150 98.5625C150 84.6859 144.156 72.2035 134.875 63.6441C140.562 59.4941 147.5 57.0625 155 57.0625H165C184.344 57.0625 200 73.3059 200 93.375C200 107.868 191.812 120.35 180 126.186V134.875C180 140.614 175.531 145.25 170 145.25H150C144.469 145.25 140 140.614 140 134.875ZM142.5 28.5312C142.5 23.7159 144.344 19.0978 147.626 15.6928C150.908 12.2879 155.359 10.375 160 10.375C164.641 10.375 169.092 12.2879 172.374 15.6928C175.656 19.0978 177.5 23.7159 177.5 28.5312C177.5 33.3466 175.656 37.9647 172.374 41.3697C169.092 44.7746 164.641 46.6875 160 46.6875C155.359 46.6875 150.908 44.7746 147.626 41.3697C144.344 37.9647 142.5 33.3466 142.5 28.5312ZM180 79.6605V107.122C183.125 103.458 185 98.6598 185 93.4074C185 88.1551 183.125 83.3242 180 79.693V79.6605ZM100 10.375C105.304 10.375 110.391 12.5612 114.142 16.4525C117.893 20.3439 120 25.6218 120 31.125C120 36.6282 117.893 41.9061 114.142 45.7975C110.391 49.6888 105.304 51.875 100 51.875C94.6957 51.875 89.6086 49.6888 85.8579 45.7975C82.1071 41.9061 80 36.6282 80 31.125C80 25.6218 82.1071 20.3439 85.8579 16.4525C89.6086 12.5612 94.6957 10.375 100 10.375ZM75 98.5625C75 103.815 76.875 108.613 80 112.277V84.8481C76.875 88.5117 75 93.3102 75 98.5625ZM120 84.8481V112.309C123.125 108.646 125 103.847 125 98.5949C125 93.3426 123.125 88.5117 120 84.8805V84.8481ZM140 98.5625C140 113.055 131.812 125.538 120 131.373V145.25C120 150.989 115.531 155.625 110 155.625H90C84.4688 155.625 80 150.989 80 145.25V131.373C68.1875 125.538 60 113.055 60 98.5625C60 78.4934 75.6562 62.25 95 62.25H105C124.344 62.25 140 78.4934 140 98.5625Z" fill="#07B3B3"/>
</svg>
