<svg width="45" height="46" viewBox="0 0 45 46" fill="none" xmlns="http://www.w3.org/2000/svg">
<path d="M36.9 4.05566H8.10001C5.61871 4.05566 3.60001 6.07436 3.60001 8.55566V37.3557C3.60001 39.837 5.61871 41.8557 8.10001 41.8557H36.9C39.3813 41.8557 41.4 39.837 41.4 37.3557V8.55566C41.4 6.07436 39.3813 4.05566 36.9 4.05566ZM33.3054 20.5464C33.1011 20.5653 32.8941 20.5779 32.6844 20.5779C30.3237 20.5779 28.2492 19.3638 27.0423 17.5287C27.0423 22.3428 27.0423 27.8202 27.0423 27.912C27.0423 32.1501 23.6061 35.5863 19.368 35.5863C15.1299 35.5863 11.6937 32.1501 11.6937 27.912C11.6937 23.6739 15.1299 20.2377 19.368 20.2377C19.5282 20.2377 19.6848 20.2521 19.8423 20.262V24.0438C19.6848 24.0249 19.53 23.9961 19.368 23.9961C17.2044 23.9961 15.4512 25.7493 15.4512 27.9129C15.4512 30.0765 17.2044 31.8297 19.368 31.8297C21.5316 31.8297 23.4423 30.1251 23.4423 27.9615C23.4423 27.876 23.4801 10.3269 23.4801 10.3269H27.0945C27.4347 13.5588 30.0438 16.1094 33.3054 16.3434V20.5464Z" fill="#778CF8"/>
</svg>
