<svg width="77" height="77" viewBox="0 0 77 77" fill="#0000" xmlns="http://www.w3.org/2000/svg">
<path d="M63.1399 6.16016H13.8599C9.61413 6.16016 6.15991 9.61438 6.15991 13.8602V63.1402C6.15991 67.3859 9.61413 70.8402 13.8599 70.8402H63.1399C67.3857 70.8402 70.8399 67.3859 70.8399 63.1402V13.8602C70.8399 9.61438 67.3857 6.16016 63.1399 6.16016ZM56.9892 34.3776C56.6396 34.4099 56.2854 34.4315 55.9266 34.4315C51.8871 34.4315 48.3374 32.354 46.2723 29.214C46.2723 37.4514 46.2723 46.8239 46.2723 46.9809C46.2723 54.2328 40.3926 60.1125 33.1407 60.1125C25.8889 60.1125 20.0091 54.2328 20.0091 46.9809C20.0091 39.7291 25.8889 33.8494 33.1407 33.8494C33.4148 33.8494 33.6828 33.874 33.9523 33.8909V40.362C33.6828 40.3297 33.4179 40.2804 33.1407 40.2804C29.4386 40.2804 26.4386 43.2803 26.4386 46.9825C26.4386 50.6846 29.4386 53.6846 33.1407 53.6846C36.8429 53.6846 40.1123 50.7678 40.1123 47.0656C40.1123 46.9193 40.177 16.8909 40.177 16.8909H46.3616C46.9437 22.421 51.4082 26.7854 56.9892 27.1858V34.3776Z" fill="white"/>
</svg>
