<svg width="42" height="42" viewBox="0 0 42 42" fill="none" xmlns="http://www.w3.org/2000/svg">
<path d="M20.7001 0.455688C9.28633 0.455688 0.000133583 9.74189 0.000133583 21.1557C0.000133583 24.7197 0.920833 28.2243 2.66683 31.3167L0.0334335 40.7127C-0.0529665 41.0214 0.0307336 41.3526 0.253934 41.5821C0.425834 41.7594 0.659834 41.8557 0.900134 41.8557C0.972134 41.8557 1.04503 41.8467 1.11613 41.8296L10.9225 39.4005C13.9168 41.0079 17.2891 41.8557 20.7001 41.8557C32.1139 41.8557 41.4001 32.5695 41.4001 21.1557C41.4001 9.74189 32.1139 0.455688 20.7001 0.455688ZM31.1131 28.4601C30.6703 29.6859 28.5463 30.8046 27.5257 30.9549C26.6095 31.089 25.4503 31.1466 24.1777 30.747C23.4064 30.504 22.4164 30.1818 21.1483 29.6409C15.8176 27.3675 12.3364 22.0674 12.07 21.7173C11.8045 21.3672 9.90013 18.8724 9.90013 16.2903C9.90013 13.7082 11.2726 12.4383 11.7604 11.9127C12.2482 11.3871 12.8233 11.2557 13.1779 11.2557C13.5325 11.2557 13.8862 11.2602 14.1967 11.2746C14.5234 11.2908 14.9617 11.1513 15.3928 12.1755C15.8356 13.2267 16.8985 15.8088 17.0299 16.0725C17.1631 16.3353 17.2513 16.6422 17.0749 16.9923C16.8985 17.3424 16.8103 17.5611 16.5439 17.868C16.2775 18.1749 15.9859 18.552 15.7465 18.7878C15.4801 19.0497 15.2038 19.3332 15.5134 19.8588C15.823 20.3844 16.8895 22.1025 18.4699 23.4939C20.4994 25.2813 22.2121 25.8357 22.7431 26.0985C23.2741 26.3613 23.5846 26.3172 23.8942 25.9671C24.2038 25.6161 25.2226 24.4344 25.5763 23.9097C25.93 23.385 26.2846 23.4714 26.7724 23.6469C27.2602 23.8215 29.8729 25.0905 30.4039 25.3533C30.9349 25.6161 31.2895 25.7475 31.4227 25.9662C31.5559 26.184 31.5559 27.2352 31.1131 28.4601Z" fill="#778CF8"/>
</svg>
